<svg width="40" height="40" viewBox="0 0 40 40" fill="none" xmlns="http://www.w3.org/2000/svg">
<path d="M15.4947 23.6838C15.2196 23.6843 14.9473 23.7397 14.6939 23.8468C14.4404 23.9539 14.2109 24.1105 14.0188 24.3075C13.8267 24.5044 13.6758 24.7378 13.575 24.9938C13.4743 25.2498 13.4256 25.5234 13.432 25.7984C13.4136 26.3649 13.6202 26.9157 14.0068 27.3302C14.3933 27.7447 14.9283 27.9893 15.4947 28.0104C16.0675 27.9914 16.6103 27.7496 17.0075 27.3365C17.4047 26.9234 17.625 26.3715 17.6215 25.7984C17.6238 25.5191 17.5702 25.2421 17.4639 24.9838C17.3577 24.7254 17.2009 24.4909 17.0028 24.2939C16.8047 24.0969 16.5693 23.9415 16.3103 23.8367C16.0513 23.732 15.774 23.68 15.4947 23.6838ZM15.4947 27.1532C15.1558 27.1319 14.8389 26.9776 14.6132 26.7239C14.3874 26.4702 14.271 26.1376 14.2892 25.7984C14.2821 25.6358 14.3081 25.4734 14.3655 25.3211C14.423 25.1688 14.5106 25.0297 14.6233 24.9121C14.7359 24.7946 14.8712 24.7012 15.021 24.6374C15.1708 24.5736 15.3319 24.5408 15.4947 24.541C15.6611 24.5384 15.8264 24.569 15.9808 24.6312C16.1352 24.6933 16.2757 24.7856 16.3939 24.9027C16.5122 25.0199 16.6059 25.1594 16.6695 25.3132C16.7331 25.467 16.7653 25.632 16.7643 25.7984C16.7707 26.1451 16.6416 26.4805 16.4045 26.7335C16.1674 26.9865 15.841 27.137 15.4947 27.1532Z" fill="#012C0E" stroke="#012C0E" stroke-width="0.3"/>
<path d="M18.9802 14.3233C18.9698 13.7559 18.7386 13.2149 18.3358 12.8151C17.933 12.4153 17.3903 12.1882 16.8228 12.1821C16.263 12.1838 15.7269 12.4077 15.3321 12.8045C14.9374 13.2014 14.7165 13.7389 14.718 14.2986C14.7471 14.8555 14.9804 15.3821 15.3732 15.7778C15.7661 16.1736 16.2909 16.4107 16.8476 16.444C17.1314 16.4625 17.4159 16.4204 17.6823 16.3206C17.9486 16.2207 18.1906 16.0654 18.3923 15.8648C18.594 15.6642 18.7507 15.4231 18.8521 15.1573C18.9534 14.8915 18.9971 14.6072 18.9802 14.3233ZM15.575 14.2798C15.5788 13.95 15.7123 13.6349 15.9466 13.4028C16.1809 13.1706 16.4972 13.0401 16.8271 13.0393H16.8333C17.1765 13.0485 17.5028 13.1904 17.7434 13.4352C17.984 13.6801 18.1203 14.0087 18.1235 14.352C18.1362 14.5166 18.1134 14.682 18.0566 14.837C17.9998 14.9919 17.9102 15.1329 17.7941 15.2502C17.6779 15.3674 17.5379 15.4584 17.3835 15.5167C17.2291 15.5751 17.0639 15.5995 16.8992 15.5883C16.5575 15.5675 16.2349 15.4234 15.9913 15.1828C15.7478 14.9422 15.5999 14.6213 15.575 14.2798Z" fill="#012C0E" stroke="#012C0E" stroke-width="0.3"/>
<path d="M23.7446 15.7787C24.5377 13.5077 23.3787 11.1637 21.6714 9.45647C21.0401 8.81072 20.286 8.29782 19.4534 7.94797C18.6209 7.59813 17.7267 7.41843 16.8237 7.41944C15.9206 7.42045 15.0268 7.60216 14.1951 7.95386C13.3633 8.30556 12.6103 8.82015 11.9805 9.46731C10.7963 10.6515 10.2206 12.2347 10.2206 14.3075C10.2206 16.5499 10.7461 18.4207 12.5431 19.7779C11.9161 20.1543 11.3397 20.6091 10.8279 21.1315C9.84595 22.1134 8.54065 23.6654 8.54065 25.7984C8.56143 26.7027 8.76083 27.5939 9.12738 28.4208C9.49392 29.2477 10.0204 29.994 10.6764 30.6167C11.8702 31.8104 13.4913 32.4157 15.4947 32.4157C17.9616 32.4157 20.061 31.9928 21.3323 29.9048C22.4777 30.4436 23.7322 30.7106 24.9978 30.6847C26.8412 30.6847 29.1522 30.4899 30.6717 28.9703C31.9535 27.6886 32.6595 25.6735 32.6595 23.2963C32.6716 22.1819 32.4371 21.0787 31.9728 20.0655C31.5086 19.0524 30.826 18.1545 29.9741 17.4361C29.1221 16.7177 28.1218 16.1965 27.0449 15.91C25.9679 15.6235 24.8409 15.5786 23.7446 15.7787ZM11.0778 14.3075C11.0778 12.4737 11.5714 11.0887 12.5865 10.0735C13.1367 9.50585 13.7952 9.05435 14.523 8.74568C15.2508 8.43702 16.0331 8.27746 16.8237 8.27645C17.6142 8.27544 18.3969 8.433 19.1255 8.7398C19.8541 9.04661 20.5137 9.49643 21.0654 10.0626C22.4071 11.4044 23.1461 12.912 23.1461 14.3075C23.1461 15.5665 22.4514 16.8227 20.8936 18.3805C20.3153 18.9758 19.6339 19.4614 18.8823 19.8137C18.0596 19.348 17.1461 19.0652 16.2041 18.9848C15.2621 18.9043 14.3139 19.028 13.4241 19.3474C11.6053 18.2 11.0778 16.4697 11.0778 14.3075ZM19.9675 30.2712C19.0772 31.1615 17.6977 31.5585 15.4947 31.5585C13.7269 31.5585 12.3097 31.0377 11.2825 30.0105C10.7057 29.4677 10.2421 28.816 9.91866 28.0931C9.59517 27.3701 9.41815 26.5902 9.39781 25.7984C9.39781 24.4171 10.0448 23.1268 11.4339 21.7377C12.7306 20.441 14.0588 19.8106 15.4947 19.8106C16.2851 19.7984 17.07 19.9448 17.8028 20.2412C18.5357 20.5375 19.2016 20.9779 19.7613 21.5361C20.321 22.0944 20.7631 22.7593 21.0613 23.4914C21.3596 24.2235 21.508 25.0079 21.4977 25.7984C21.4977 27.6959 20.9543 29.2844 19.9675 30.2712ZM30.0657 28.3642C29.0536 29.3762 27.4906 29.8275 24.9977 29.8275C23.868 29.8525 22.7475 29.6178 21.7227 29.1416C22.1574 28.0814 22.3725 26.9441 22.3549 25.7984C22.3645 24.749 22.1308 23.7116 21.6722 22.7676C21.2137 21.8236 20.5427 20.9987 19.7119 20.3575C21.164 19.4652 22.3847 18.2424 23.2747 16.7888C26.9954 15.5478 31.8022 18.3517 31.8022 23.2963C31.8022 25.4445 31.1855 27.2443 30.0657 28.3642Z" fill="#012C0E" stroke="#012C0E" stroke-width="0.3"/>
<path d="M26.479 21.3689C26.1756 21.3659 25.8747 21.4244 25.5946 21.541C25.3144 21.6575 25.0608 21.8296 24.849 22.0468C24.6372 22.2641 24.4716 22.522 24.3623 22.8051C24.2529 23.0881 24.202 23.3903 24.2127 23.6936C24.192 24.3165 24.4188 24.9223 24.8435 25.3785C25.2681 25.8346 25.8562 26.104 26.479 26.1278C27.1091 26.1066 27.706 25.8404 28.1428 25.3858C28.5795 24.9311 28.8216 24.324 28.8175 23.6936C28.8199 23.3865 28.7609 23.082 28.6441 22.7979C28.5273 22.5139 28.3549 22.256 28.1371 22.0395C27.9193 21.823 27.6604 21.6521 27.3757 21.537C27.091 21.4218 26.7861 21.3647 26.479 21.3689ZM26.479 25.2706C26.0837 25.2467 25.7137 25.0675 25.4498 24.7722C25.1859 24.4768 25.0494 24.0891 25.0699 23.6936C25.0618 23.5036 25.0923 23.314 25.1595 23.1362C25.2267 22.9583 25.3292 22.7959 25.4609 22.6588C25.5926 22.5216 25.7507 22.4126 25.9257 22.3382C26.1007 22.2638 26.2889 22.2257 26.479 22.2261C26.6732 22.2231 26.866 22.2589 27.0462 22.3314C27.2264 22.4039 27.3903 22.5117 27.5282 22.6484C27.6662 22.7851 27.7755 22.9479 27.8497 23.1274C27.9239 23.3069 27.9615 23.4994 27.9603 23.6936C27.9672 24.0976 27.8164 24.4883 27.5398 24.7828C27.2632 25.0773 26.8826 25.2523 26.479 25.2706Z" fill="#012C0E" stroke="#012C0E" stroke-width="0.3"/>
<path d="M38.9562 19.936C38.202 9.57609 30.2991 1 19.9902 1C9.68991 1 1.52883 10.3677 1.02369 19.9446C0.476427 30.3165 9.49064 37.9156 19.9488 38.9324C24.9717 39.4207 29.8544 37.4612 33.4474 33.9542C37.1279 30.3617 39.3439 25.2588 38.9562 19.936ZM32.8486 33.3407C29.3051 36.7995 24.6332 38.5266 20.0316 38.0792C10.8166 37.1833 1.32312 30.5389 1.87971 19.9897C2.34162 11.233 9.72915 1.85719 19.9902 1.85719C29.5621 1.85719 37.3482 9.6562 38.1014 19.9983C38.2517 22.4708 37.8594 24.9462 36.952 27.251C36.0446 29.5558 34.6441 31.6343 32.8486 33.3407Z" fill="#012C0E" stroke="#012C0E" stroke-width="0.3"/>
</svg>
