<svg width="28" height="35" viewBox="0 0 28 35" fill="none" xmlns="http://www.w3.org/2000/svg">
<path d="M14.0516 0.00111311C13.9837 -0.00305729 13.9156 0.00451072 13.8502 0.0234846C13.7519 0.0494321 13.6619 0.100285 13.5889 0.171137C11.3316 2.35124 8.30857 3.57273 5.16 3.57541C3.66983 3.57541 2.19353 3.29018 0.805599 2.75169C0.715939 2.71696 0.619166 2.7046 0.523653 2.71567C0.42814 2.72675 0.336765 2.76093 0.257431 2.81526C0.178098 2.86959 0.113196 2.94243 0.0683413 3.02748C0.0234867 3.11253 2.95856e-05 3.20722 0 3.30338V20.542C0 24.5595 3.54253 27.9376 6.95263 30.3647C10.3629 32.7913 13.7623 34.281 13.7623 34.281C13.8373 34.314 13.9183 34.331 14.0002 34.331C14.0821 34.331 14.1631 34.314 14.2381 34.281C14.2381 34.281 17.6371 32.7913 21.0474 30.3647C24.4577 27.9376 28 24.5595 28 20.542V3.30338C28 3.20722 27.9765 3.11253 27.9317 3.02748C27.8868 2.94243 27.8219 2.86959 27.7426 2.81526C27.6632 2.76093 27.5719 2.72675 27.4763 2.71567C27.3808 2.7046 27.2841 2.71696 27.1944 2.75169C25.8065 3.29018 24.3304 3.56937 22.8402 3.57541C19.6917 3.57541 16.6684 2.35124 14.4111 0.171137C14.3132 0.0769623 14.186 0.0193004 14.0507 0.00782462L14.0516 0.00111311ZM14.0001 1.39441C16.4285 3.55013 19.5733 4.75059 22.8409 4.75283C24.1912 4.75283 25.5302 4.53359 26.8139 4.12866V20.5357C26.8139 23.8297 23.6523 27.0499 20.3583 29.394C17.4093 31.4924 14.5845 32.8137 13.9974 33.0806C13.4102 32.8137 10.5853 31.4924 7.6363 29.394C4.34232 27.0499 1.18077 23.8297 1.18077 20.5357V4.12844C2.46445 4.53426 3.80339 4.74701 5.15373 4.75283C8.4211 4.75283 11.5659 3.54991 13.9943 1.39441H14.0001ZM14.0001 7.93451C11.7312 7.93451 9.55466 8.83027 7.94928 10.4258C6.34412 12.0211 5.44098 14.1869 5.44098 16.4446C5.44098 18.7026 6.34412 20.8682 7.94928 22.4637C9.55466 24.0592 11.7312 24.955 14.0001 24.955C16.2688 24.955 18.4456 24.0592 20.0509 22.4637C21.6563 20.8682 22.559 18.7026 22.559 16.4446C22.559 14.1869 21.6563 12.0211 20.0509 10.4258C18.4456 8.83027 16.2688 7.93451 14.0001 7.93451ZM14.0001 9.11796C15.9572 9.11796 17.8335 9.89045 19.2165 11.2652C20.5995 12.6399 21.3756 14.5021 21.3756 16.4446C21.3756 18.3872 20.5995 20.2498 19.2165 21.6243C17.8335 22.9988 15.9572 23.7713 14.0001 23.7713C12.0428 23.7713 10.1665 22.9988 8.78351 21.6243C7.40051 20.2498 6.62489 18.3872 6.62489 16.4446C6.62489 14.5021 7.40051 12.6399 8.78351 11.2652C10.1665 9.89045 12.0428 9.11796 14.0001 9.11796ZM17.2706 13.2569C17.114 13.2659 16.9674 13.3367 16.863 13.4538L12.8757 17.9442L10.7562 15.703C10.7028 15.6466 10.6387 15.6013 10.5677 15.5696C10.4967 15.538 10.4202 15.5206 10.3425 15.5185C10.2648 15.5164 10.1875 15.5297 10.1149 15.5575C10.0423 15.5853 9.97594 15.6272 9.91954 15.6807C9.80567 15.7886 9.73934 15.9374 9.73515 16.0943C9.73095 16.2511 9.78923 16.4032 9.89717 16.5171L12.4605 19.2274C12.5175 19.2865 12.5861 19.333 12.662 19.3641C12.738 19.3952 12.8195 19.4102 12.9016 19.4081C12.9836 19.406 13.0643 19.3869 13.1385 19.3519C13.2127 19.317 13.2789 19.267 13.3328 19.2051L17.7489 14.2319C17.8006 14.1738 17.8403 14.1061 17.8657 14.0327C17.8912 13.9592 17.902 13.8815 17.8974 13.8039C17.8928 13.7263 17.873 13.6504 17.8391 13.5804C17.8052 13.5105 17.7578 13.4479 17.6997 13.3963C17.5823 13.2924 17.4285 13.2393 17.2719 13.2486L17.2706 13.2569Z" fill="#012C0E"/>
</svg>
