<svg width="39" height="41" viewBox="0 0 39 41" fill="none" xmlns="http://www.w3.org/2000/svg">
<path d="M37.2672 29.4733L37.8076 29.1316L37.3457 28.6895C36.883 28.2467 36.2813 27.9608 35.635 27.8683C34.9888 27.7758 34.3259 27.8805 33.7464 28.1695L27.3105 31.3675L27.3064 31.3695L26.7125 31.6578L26.4101 31.8046L26.4319 32.14C26.4368 32.215 26.4398 32.2864 26.4398 32.3559C26.4398 32.3574 26.4395 32.36 26.4377 32.364C26.4359 32.3681 26.4319 32.3746 26.4238 32.3821C26.4067 32.3979 26.3752 32.4131 26.3347 32.4131L26.3311 32.4131L26.3282 32.413L21.8817 32.228L21.8816 32.228C20.5525 32.173 19.2208 32.2298 17.9028 32.3977L17.9028 32.3977L17.8988 32.3982C17.8801 32.4008 17.8611 32.3998 17.8434 32.3957C17.8256 32.3915 17.811 32.3846 17.8001 32.3771C17.7892 32.3695 17.7827 32.362 17.7792 32.3565C17.7758 32.3512 17.7749 32.3474 17.7746 32.3457C17.7744 32.344 17.7744 32.3422 17.7751 32.3397C17.7758 32.3371 17.7778 32.3321 17.7832 32.3256C17.7887 32.319 17.7976 32.311 17.8109 32.3039L17.5759 31.8626L17.8109 32.3039C17.8243 32.2968 17.8409 32.2913 17.8596 32.289L17.8628 32.2886C19.1981 32.1199 20.5474 32.0637 21.8939 32.1207C21.8941 32.1208 21.8943 32.1208 21.8945 32.1208L25.6448 32.29L26.2952 32.3194L26.1557 31.6834C25.9793 30.879 25.5071 30.165 24.831 29.6582C24.156 29.1521 23.317 28.8813 22.4576 28.8851H17.248C16.2919 28.877 15.3512 28.6717 14.4953 28.2859L13.9628 28.0311L13.9628 28.0309L13.9515 28.0258C12.5424 27.3941 10.9738 27.1336 9.41749 27.2711C7.86118 27.4086 6.37289 27.9393 5.11691 28.8083L5.10022 28.8199L5.08452 28.8327L3.80569 29.8806C3.80567 29.8806 3.80565 29.8806 3.80563 29.8806C3.24719 30.3381 2.58538 30.6809 1.86474 30.8834L1.36085 31.025L1.52533 31.5219L4.07221 39.216L4.26589 39.8011L4.7985 39.491L8.36897 37.4116L8.36914 37.4115L8.37756 37.4068C9.04762 37.0607 9.83999 36.9609 10.5911 37.1315L10.6046 37.1346L10.6183 37.1369L18.4345 38.4625L18.4369 38.4629C20.3958 38.7854 22.4162 38.5276 24.209 37.7242L24.2416 37.7096L24.2717 37.6905L37.2672 29.4733Z" stroke="#012C0E"/>
<path d="M10.7795 18.8415C9.41451 16.4291 9.38281 13.6948 10.7134 11.3564L10.7257 11.3348L10.7401 11.3146L17.5472 1.71086L17.9557 1.13458L18.3635 1.71138L25.1723 11.3432L25.1861 11.3628L25.1979 11.3835C26.5266 13.7054 26.4973 16.4264 25.1399 18.8318L10.7795 18.8415ZM10.7795 18.8415C11.5023 20.1244 12.5451 21.1927 13.8042 21.9384L14.059 21.5082L13.8042 21.9384C15.0635 22.6843 16.4945 23.081 17.9535 23.0883L17.9584 23.0882C19.4195 23.0812 20.8526 22.6835 22.1134 21.9359C23.3739 21.1884 24.4173 20.1177 25.1396 18.8322L10.7795 18.8415ZM22.2449 14.8557V14.8537C22.2449 14.8262 22.2557 14.8014 22.2725 14.7843C22.2892 14.7674 22.3101 14.7593 22.3302 14.7593C22.3504 14.7593 22.3713 14.7674 22.3879 14.7843C22.4047 14.8014 22.4156 14.8262 22.4156 14.8537H22.9156L22.4156 14.8519C22.4114 16.0689 21.9319 17.2329 21.0847 18.0891C20.2377 18.945 19.0925 19.4234 17.9009 19.4219H17.9002C17.8801 19.4219 17.8592 19.4139 17.8426 19.397C17.8257 19.3799 17.8149 19.355 17.8149 19.3276C17.8149 19.3001 17.8257 19.2753 17.8426 19.2582L17.4863 18.9074L17.8426 19.2582C17.8592 19.2413 17.8801 19.2333 17.9002 19.2333C19.0509 19.2353 20.1539 18.7738 20.9678 17.9526C21.7816 17.1313 22.24 16.0175 22.2449 14.8557ZM17.9002 19.9219C17.745 19.9219 17.5961 19.8593 17.4863 19.7478L17.9002 19.9219Z" stroke="#012C0E"/>
</svg>
