<svg width="28" height="28" viewBox="0 0 28 28" fill="none" xmlns="http://www.w3.org/2000/svg">
<path d="M26.6899 25.7119C21.1729 25.7119 3.69197 25.4672 2.21658 25.4462C1.9229 16.8666 1.63621 6.97237 1.39847 0.343606C1.39847 0.000979969 0 -0.26473 0 0.462476C0 3.47619 0.0489466 6.52486 0.0699237 9.58052V10.1329C0.125863 15.566 0.195786 21.0061 0.475481 26.4181C0.46784 26.5049 0.477893 26.5923 0.505032 26.6751C0.532172 26.7578 0.575831 26.8342 0.633365 26.8996C0.6909 26.965 0.76111 27.018 0.839741 27.0554C0.918373 27.0928 1.00379 27.1139 1.09081 27.1174C9.70541 27.1873 18.1662 27.2153 26.7668 27.3132C27.7177 27.3272 27.6408 25.7119 26.6899 25.7119Z" fill="#012C0E"/>
<path d="M4.09051 12.7198C4.38213 12.8318 4.70369 12.8387 4.9998 12.7391C5.29591 12.6396 5.54803 12.4398 5.71274 12.1744C5.86694 11.9417 5.93153 11.661 5.89454 11.3843C6.67769 10.8249 10.7542 7.27974 11.9569 6.05608C12.2005 6.14984 12.466 6.17135 12.7214 6.11802C12.9769 6.06469 13.2116 5.93878 13.3974 5.75541C14.9986 6.35675 16.8935 6.92313 18.5577 7.46854C18.6716 7.66747 18.8326 7.83536 19.0266 7.95743C19.2206 8.07951 19.4417 8.15202 19.6703 8.1686C19.8989 8.18518 20.1281 8.14531 20.3377 8.05249C20.5473 7.95968 20.7308 7.81678 20.8722 7.63635C21 7.44684 21.0637 7.2214 21.054 6.99305C22.1238 6.29382 26.2563 3.07034 27.1863 2.34313C27.5639 2.04945 26.9276 1.21736 26.55 1.51104C25.4102 2.39208 21.4665 5.15406 20.7463 5.88826C20.5957 5.68944 20.3885 5.54077 20.152 5.46173C19.8758 5.38044 19.5803 5.39414 19.3129 5.50062C19.0454 5.60711 18.8213 5.80023 18.6766 6.04909C16.9005 5.63654 15.1804 5.0282 13.5302 4.58768C13.4699 4.37203 13.3488 4.17828 13.1815 4.02951C13.0141 3.88074 12.8075 3.78323 12.5862 3.7486C12.4236 3.73621 12.2602 3.75609 12.1052 3.80709C11.9503 3.85809 11.807 3.9392 11.6836 4.04577C11.5601 4.15234 11.4589 4.28225 11.3858 4.42805C11.3127 4.57385 11.2692 4.73266 11.2577 4.89534C11.2577 4.89534 11.2577 4.96527 11.2577 4.99324C9.85921 5.95119 5.88056 9.71309 5.16034 10.4053C5.02161 10.3386 4.87087 10.3005 4.7171 10.2933C4.56333 10.2861 4.40968 10.3099 4.26532 10.3634C4.0579 10.4004 3.86564 10.4967 3.71177 10.6406C3.5579 10.7846 3.44901 10.97 3.39827 11.1745C3.31161 11.4723 3.33366 11.7913 3.46047 12.0743C3.58728 12.3574 3.81059 12.5862 4.09051 12.7198Z" fill="#012C0E"/>
<path d="M26.6759 10.6924C25.3963 13.0978 24.2006 15.587 22.9979 18.0134C22.3095 17.1707 21.579 16.3632 20.8093 15.594C20.725 15.4824 20.6119 15.3958 20.4821 15.3437C20.3524 15.2915 20.2108 15.2757 20.0727 15.298C19.9346 15.3203 19.8053 15.3798 19.6985 15.4702C19.5917 15.5605 19.5116 15.6783 19.4668 15.8108C19.0123 16.6359 18.6556 17.468 18.1872 18.377C18.0054 17.426 15.7049 11.7272 15.6629 11.6993C15.5819 11.6128 15.4829 11.5452 15.3727 11.5015C15.2626 11.4577 15.1442 11.4389 15.026 11.4462C14.9077 11.4536 14.7925 11.487 14.6887 11.544C14.5849 11.601 14.4949 11.6803 14.4253 11.7762C13.5512 13.6432 11.4955 20.167 11.027 21.5655C10.5725 20.6635 9.49564 18.2511 9.2579 17.8176C9.20176 17.717 9.12162 17.6318 9.02462 17.5696C8.92762 17.5075 8.81675 17.4702 8.70188 17.4612C8.58702 17.4522 8.47171 17.4717 8.36621 17.5181C8.26071 17.5644 8.16829 17.6361 8.09717 17.7267C7.44219 18.6353 6.74208 19.5104 5.99946 20.3488C5.35624 20.9407 4.83589 21.6536 4.46813 22.4465C4.46168 22.4697 4.46468 22.4945 4.47647 22.5155C4.48827 22.5365 4.5079 22.5519 4.53106 22.5584H4.58001C5.51698 22.3207 6.27216 21.4676 6.90847 20.7824C7.54477 20.0971 8.08318 19.4468 8.63558 18.7476C8.73347 19.0552 9.95015 21.6634 10.4116 22.6773C10.7333 23.3765 11.4605 22.936 11.4745 22.915C12.3415 21.6145 14.5511 15.0556 15.1385 13.4334C15.4392 14.3284 16.7817 18.8105 17.4809 19.8734C17.6977 20.223 18.3899 20.0552 18.4389 20.0202C19.0123 19.5657 20.0751 17.1184 20.3898 16.6149C21.1106 17.6794 21.8854 18.7063 22.7112 19.6916C22.8504 19.8138 23.0324 19.8758 23.2172 19.864C23.402 19.8522 23.5746 19.7676 23.6971 19.6286L23.7531 19.5587C25.2075 16.8806 26.6479 14.1676 27.9485 11.3986C28.2562 10.5945 27.1024 9.88825 26.6759 10.6924Z" fill="#012C0E"/>
</svg>
