<svg width="32" height="32" viewBox="0 0 32 32" fill="none" xmlns="http://www.w3.org/2000/svg">
<path d="M1.14065 0H16.2H31.2593C31.6679 0 32 0.33207 32 0.740624V15.8V30.8593C32 31.2679 31.6679 31.5999 31.2593 31.5999H16.2H1.14065C0.732095 31.5999 0.400024 31.2679 0.400024 30.8593V15.8V0.740624C0.400024 0.33207 0.732095 0 1.14065 0ZM1.88127 15.0593H5.07612V14.644C5.07612 13.6546 5.4808 12.7562 6.13139 12.1056C6.78197 11.455 7.6804 11.0503 8.66984 11.0503C9.65831 11.0503 10.5577 11.454 11.2083 12.1056C11.8589 12.7562 12.2636 13.6556 12.2636 14.644V15.0593H15.4584V11.1229C15.4584 10.7144 15.7905 10.3823 16.199 10.3823H17.355C17.9349 10.3823 18.4635 10.1441 18.8469 9.76171C19.2303 9.37833 19.4684 8.8507 19.4684 8.26981C19.4684 7.6899 19.2303 7.1613 18.8469 6.77792C18.4635 6.39454 17.9359 6.15734 17.355 6.15734H16.199C15.7905 6.15734 15.4584 5.82527 15.4584 5.41672V1.48028H1.8803V15.0584L1.88127 15.0593ZM15.4594 16.5406H11.5229C11.1144 16.5406 10.7823 16.2085 10.7823 15.8V14.644C10.7823 14.0641 10.5441 13.5355 10.1617 13.1521C9.77835 12.7687 9.25072 12.5306 8.66984 12.5306C8.08993 12.5306 7.56132 12.7687 7.17794 13.1521C6.79456 13.5355 6.55737 14.0631 6.55737 14.644V15.8C6.55737 16.2085 6.2253 16.5406 5.81674 16.5406H1.8803V30.1187H15.4584V26.9239H15.0431C14.0536 26.9239 13.1552 26.5192 12.5046 25.8686C11.854 25.218 11.4494 24.3196 11.4494 23.3301C11.4494 22.3417 11.8531 21.4423 12.5046 20.7917C13.1552 20.1411 14.0546 19.7364 15.0431 19.7364H15.4584V16.5416L15.4594 16.5406ZM16.9406 16.5406V20.477C16.9406 20.8856 16.6086 21.2177 16.2 21.2177H15.044C14.4641 21.2177 13.9355 21.4558 13.5521 21.8382C13.1688 22.2216 12.9306 22.7493 12.9306 23.3301C12.9306 23.91 13.1688 24.4386 13.5521 24.822C13.9355 25.2054 14.4632 25.4426 15.044 25.4426H16.2C16.6086 25.4426 16.9406 25.7747 16.9406 26.1832V30.1197H30.5187V16.5416H27.3239V16.9569C27.3239 17.9463 26.9192 18.8448 26.2686 19.4953C25.618 20.1459 24.7196 20.5506 23.7302 20.5506C22.7417 20.5506 21.8423 20.1469 21.1917 19.4953C20.5411 18.8448 20.1364 17.9454 20.1364 16.9569V16.5416H16.9416L16.9406 16.5406ZM16.9406 15.0593H20.8771C21.2856 15.0593 21.6177 15.3914 21.6177 15.8V16.9559C21.6177 17.5358 21.8558 18.0644 22.2383 18.4478C22.6216 18.8312 23.1493 19.0694 23.7302 19.0694C24.3101 19.0694 24.8387 18.8312 25.2221 18.4478C25.6054 18.0644 25.8426 17.5368 25.8426 16.9559V15.8C25.8426 15.3914 26.1747 15.0593 26.5833 15.0593H30.5197V1.48125H16.9416V4.6761H17.3569C18.3464 4.6761 19.2448 5.08078 19.8954 5.73136C20.546 6.38195 20.9506 7.28038 20.9506 8.26981C20.9506 9.25828 20.5469 10.1577 19.8954 10.8083C19.2448 11.4589 18.3454 11.8635 17.3569 11.8635H16.9416V15.0584L16.9406 15.0593Z" fill="#012C0E"/>
</svg>
