<svg width="40" height="19" viewBox="0 0 40 19" fill="none" xmlns="http://www.w3.org/2000/svg">
<path d="M9.32 17.9754C8.28 17.9754 7.2 17.7686 6.2 17.3552C3.32 16.2389 1.44 13.7583 1.08 10.699C1.04 10.2855 1 9.91343 1 9.5C1 9.08657 1.04 8.71448 1.08 8.30105C1.44 5.24165 3.36 2.71972 6.2 1.60345C9.2 0.404499 12.56 1.02465 14.92 3.17449L20 7.76359L25.08 3.17449C27.48 1.02465 30.8 0.404499 33.8 1.60345C36.64 2.71972 38.56 5.24165 38.92 8.30105C38.96 8.67314 39 9.08657 39 9.5C39 9.91343 38.96 10.2855 38.92 10.699C38.56 13.7583 36.64 16.2803 33.8 17.3965C30.8 18.5955 27.44 17.9754 25.08 15.8255L20 11.2364L14.92 15.8255C13.36 17.2312 11.36 17.9754 9.32 17.9754ZM9.32 3.62927C8.56 3.62927 7.84 3.7533 7.08 4.0427C5.12 4.82822 3.8 6.52329 3.56 8.63179C3.52 8.9212 3.52 9.2106 3.52 9.5C3.52 9.7894 3.52 10.0788 3.56 10.3682C3.8 12.4767 5.12 14.1718 7.08 14.9573C9.2 15.7842 11.6 15.3707 13.28 13.841L18.08 9.5L13.28 5.15897C12.16 4.12539 10.76 3.62927 9.32 3.62927ZM21.92 9.5L26.72 13.841C28.4 15.3707 30.76 15.7842 32.92 14.9573C34.88 14.1718 36.2 12.4767 36.44 10.3682C36.48 10.0788 36.48 9.7894 36.48 9.5C36.48 9.2106 36.48 8.9212 36.44 8.63179C36.2 6.52329 34.88 4.82822 32.92 4.0427C30.8 3.21584 28.44 3.62927 26.72 5.15897L21.92 9.5Z" fill="#012C0E" stroke="white"/>
</svg>
