<svg width="41" height="41" viewBox="0 0 41 41" fill="none" xmlns="http://www.w3.org/2000/svg">
<path d="M21.7718 12.1147C22.0178 12.1147 22.2706 12.1275 22.5284 12.1524C22.7015 12.1692 22.8703 12.1909 23.0349 12.2178C23.2336 11.8961 23.4685 11.5994 23.7342 11.3337C24.6104 10.4577 25.821 9.91549 27.1579 9.91549C28.4937 9.91549 29.7039 10.4577 30.5806 11.3337C31.4578 12.2111 32 13.4215 32 14.7574C32 16.0942 31.4578 17.3051 30.5818 18.1811C30.2703 18.4926 29.9164 18.7618 29.5299 18.9794C29.5439 19.095 29.5555 19.2121 29.5646 19.3304C29.5797 19.5325 29.5878 19.7331 29.5878 19.931C29.5878 20.5494 29.5158 21.1513 29.3795 21.7283C29.8619 22.0354 30.2678 22.4519 30.5616 22.9419C30.8921 23.4935 31.0824 24.1377 31.0824 24.8247C31.0824 25.8374 30.6718 26.7547 30.0075 27.4187C29.3436 28.0827 28.4262 28.4936 27.4132 28.4936C26.819 28.4936 26.256 28.3509 25.7574 28.0985C25.3234 27.8784 24.9384 27.5743 24.6249 27.208C24.1061 27.4116 23.5594 27.5614 22.9933 27.6504C22.9992 27.7241 23.0022 27.7988 23.0022 27.874C23.0022 28.6637 22.682 29.3787 22.1644 29.8962C21.6471 30.4136 20.9318 30.734 20.1426 30.734C19.3542 30.734 18.6394 30.4136 18.1218 29.8962C17.6032 29.3774 17.2828 28.6627 17.2828 27.874C17.2828 27.3948 17.4011 26.9423 17.6099 26.5455C17.2013 26.2882 16.8168 25.9922 16.4623 25.6634C16.0934 25.3218 15.7587 24.9471 15.4639 24.5449C14.8835 24.8128 14.2375 24.9627 13.5567 24.9627C12.2997 24.9627 11.1605 24.4525 10.3359 23.628C9.51019 22.8036 9 21.6642 9 20.4062C9 19.1487 9.51019 18.0098 10.3349 17.1848C11.1601 16.3594 12.2997 15.8487 13.5567 15.8487C14.0514 15.8487 14.5281 15.9279 14.9742 16.0738C15.1447 15.7738 15.3347 15.4862 15.542 15.2128C15.1972 14.9785 14.9032 14.6736 14.6816 14.3192C14.3942 13.8592 14.2276 13.3158 14.2276 12.7344C14.2276 11.9075 14.5633 11.1582 15.1053 10.6162C15.6473 10.0745 16.3963 9.73877 17.2232 9.73877C18.0434 9.73877 18.7883 10.0703 19.33 10.6066C19.7751 11.0473 20.083 11.628 20.1823 12.2769C20.6957 12.1707 21.2273 12.1147 21.7718 12.1147ZM15.9886 14.6751L15.9948 14.6682L16.0108 14.6509L16.033 14.6267L16.0367 14.6226L16.0554 14.6023L16.0779 14.5784L16.0791 14.5772L16.1005 14.5545L16.1217 14.5321L16.1232 14.5306L16.1459 14.507L16.1649 14.4875L16.169 14.4831L16.192 14.4599L16.2082 14.4431L16.2149 14.4362L16.2381 14.4131L16.2519 14.3993L16.2615 14.3896L16.2849 14.3665L16.2957 14.3554L16.3083 14.3433L16.332 14.3204L16.3403 14.3123L16.3559 14.2977L16.3795 14.2748L16.3852 14.2694L16.4034 14.2521L16.4273 14.2294L16.4301 14.2267L16.4515 14.207L16.5489 14.1183L16.5673 14.101L16.5735 14.0961C16.6472 14.03 16.7221 13.966 16.7983 13.9029L16.8027 13.8992L16.8239 13.8819C16.8833 13.8331 16.9437 13.7853 17.0046 13.7382L17.0309 13.718C17.2498 13.5507 17.4775 13.3944 17.7134 13.251C18.2699 12.9123 18.8716 12.6409 19.5067 12.4487C19.4417 11.9237 19.1991 11.4527 18.841 11.098C18.4267 10.6877 17.8549 10.4343 17.2232 10.4343C16.5878 10.4343 16.0125 10.6919 15.5967 11.1077C15.1807 11.5237 14.9231 12.099 14.9231 12.7344C14.9231 13.1822 15.0508 13.6 15.2714 13.9524C15.4531 14.243 15.6988 14.4904 15.9886 14.6751ZM18.6779 13.5149C18.5864 13.559 18.496 13.6051 18.4067 13.6532L18.3823 13.6663L18.3769 13.6692L18.2882 13.7183L18.2788 13.7234L18.2589 13.735L18.1763 13.7823L18.1714 13.7855C18.107 13.8233 18.0437 13.8617 17.9806 13.9014L17.97 13.9083L17.9412 13.9265L17.9338 13.9312L17.9123 13.945L17.8872 13.961L17.8837 13.9635L17.8551 13.9825C17.7982 14.0202 17.7415 14.0584 17.6856 14.0978L17.6582 14.117L17.6577 14.1175L17.6299 14.1375L17.6134 14.1491L17.6023 14.1575L17.5747 14.1774L17.5685 14.1816L17.5471 14.1976C17.0985 14.5291 16.6891 14.9122 16.329 15.3393L16.3241 15.345L16.3211 15.3479L16.3189 15.3504C16.0589 15.6595 15.8252 15.9912 15.6202 16.3417C16.0505 16.5603 16.4414 16.8457 16.7793 17.1836L16.7929 17.1984C16.9947 17.4017 17.1776 17.6241 17.338 17.8624C17.4223 17.9871 17.5 18.1165 17.5719 18.2496L17.5722 18.2498L17.5917 18.2863L17.5976 18.2979L17.6225 18.3465L17.6294 18.36L17.6471 18.3955L17.6479 18.3967L17.6659 18.434L17.671 18.445L17.6944 18.4948L17.7011 18.5091L17.7171 18.5446L17.7184 18.5468L17.7351 18.5848L17.7395 18.5949L17.7514 18.623L17.7612 18.6457L17.7676 18.6612L17.7822 18.6967L17.7834 18.6999L17.7989 18.7383L17.8026 18.748L17.814 18.7773L17.8224 18.7995L17.8288 18.8162L17.8416 18.8512L17.8431 18.8554L17.8571 18.8948L17.8601 18.9032L17.8707 18.9343L17.8781 18.9557L17.8842 18.9742L17.8956 19.0085L17.8973 19.0139L17.9099 19.0541L17.9123 19.0615L17.9222 19.094L17.9283 19.1147L17.934 19.1342L17.9362 19.1426L17.9456 19.1748L17.9567 19.2153L17.9587 19.2222L17.9675 19.2562L17.9727 19.2764L17.9779 19.2971L17.988 19.338L17.9978 19.3794L17.9993 19.3851L18.007 19.4206L18.0114 19.4398L18.0161 19.462L18.023 19.495L18.0247 19.5036L18.0328 19.5453L18.0338 19.5502L18.0407 19.5872L18.0439 19.6059L18.0481 19.6293L18.0535 19.6619L18.055 19.6715L18.0619 19.7136L18.0624 19.7178L18.0681 19.7563L18.0708 19.774L18.074 19.7987L18.0782 19.8304L18.0794 19.8415L18.0846 19.8842L18.0848 19.8871L18.0893 19.9271L18.091 19.9441L18.0935 19.9702L18.0964 20.0013L18.0974 20.0133L18.1009 20.0565L18.1011 20.0584L18.1041 20.0998L18.1053 20.1159L18.1068 20.1432L18.1085 20.1735L18.109 20.1866L18.111 20.2305V20.2315L18.1125 20.2741L18.1127 20.2896L18.1134 20.318L18.1139 20.3475V20.3621L18.1142 20.4062L18.1139 20.4459V20.4651L18.1137 20.4853L18.1127 20.5235V20.5247L18.1115 20.5642L18.111 20.5822L18.11 20.6034L18.1083 20.6403L18.108 20.6426L18.106 20.6818L18.1051 20.6985L18.1036 20.7209L18.1009 20.7564L18.1006 20.7599L18.0974 20.7986L18.0962 20.8144L18.094 20.8375L18.0905 20.8718L18.0903 20.8762L18.0861 20.9149L18.0844 20.929L18.0816 20.9531L18.0775 20.9861L18.077 20.9916L18.0718 21.03L18.0698 21.0428L18.0664 21.0682L18.0617 21.0995L18.0607 21.1064L18.0545 21.1444L18.0526 21.156L18.0481 21.1821L18.0429 21.2124L18.0415 21.2198L18.0346 21.2577L18.0326 21.2681L18.0272 21.2952L18.0215 21.324L18.0195 21.3327L18.0119 21.3701L18.0097 21.3795L18.0035 21.4074L17.9974 21.4347L17.9949 21.4446L17.986 21.4813L17.9843 21.4897L17.9771 21.5183L17.9705 21.5441L17.9675 21.555L17.9579 21.592L17.9562 21.5986L17.9481 21.6284L17.9412 21.6528L17.9377 21.6647L17.9271 21.7011L17.9254 21.7068L17.916 21.7374L17.9155 21.7393L17.9049 21.7734L17.8936 21.8093L17.8921 21.8138L17.8818 21.8451L17.8744 21.867L17.8697 21.8806L17.8571 21.9163L17.8561 21.9198L17.8448 21.9518L17.8374 21.972L17.8317 21.9871L17.8187 22.022L17.8177 22.0243L17.8051 22.057L17.7977 22.076L17.7913 22.0918L17.7773 22.1266L17.777 22.1278L17.763 22.1613L17.7556 22.1791L17.7484 22.1958L17.7336 22.2301L17.7031 22.2983L17.688 22.3309L17.6875 22.3321L17.6715 22.3659L17.6641 22.3809L17.6555 22.3991L17.64 22.4307L17.639 22.4327L17.6222 22.4659L17.6151 22.48L17.6052 22.499L17.5894 22.5288L17.588 22.532L17.5705 22.5648L17.5636 22.5773L17.5527 22.5973L17.5369 22.6257L17.5347 22.6298L17.5096 22.6737L17.4978 22.6942L17.482 22.721L17.479 22.7262L17.4625 22.7541L17.4536 22.7684L17.4292 22.808L17.4287 22.8088L17.4248 22.8152L17.4117 22.8361L17.3955 22.8615L17.3945 22.8632C17.3657 22.9081 17.3356 22.953 17.3053 22.9971L17.304 22.9986L17.2868 23.0232L17.2725 23.0434L17.2683 23.0496L17.2493 23.0757L17.2404 23.088L17.2306 23.1016L17.2114 23.1275L17.2079 23.1321L17.1921 23.1531L17.1749 23.1755L17.1727 23.1785L17.153 23.2039L17.1411 23.2189L17.1332 23.2293L17.113 23.2541L17.1071 23.2618L17.0931 23.279L17.0726 23.3039L17.0724 23.3044L17.0521 23.3286L17.0374 23.3461L17.0314 23.3532L17.0107 23.3776L17.0019 23.3877L16.9895 23.4018L16.9683 23.4259L16.9656 23.4289L16.9469 23.4496L16.8818 23.5206L16.8599 23.5437L16.8545 23.5499L16.8377 23.5672L16.8165 23.5891L16.8153 23.5901L16.7929 23.6128L16.7781 23.628L16.7702 23.6357L16.7246 23.6803L16.7012 23.7027C16.5082 23.8873 16.2982 24.0549 16.0746 24.2035C16.3332 24.5481 16.6201 24.8668 16.9321 25.1554C17.2607 25.4598 17.62 25.7349 18.005 25.9749C18.0425 25.933 18.0809 25.8919 18.1206 25.8522L18.1346 25.8391L18.1642 25.8105L18.1647 25.8103L18.176 25.7992L18.1879 25.7881L18.1891 25.7869L18.2 25.777L18.212 25.7659L18.2142 25.7639L18.2241 25.7548L18.2362 25.744L18.2391 25.7413L18.2485 25.7329L18.2608 25.722L18.2648 25.7188L18.2732 25.7114L18.2855 25.7008L18.2904 25.6967L18.298 25.6903L18.3104 25.6797L18.3165 25.675L18.3358 25.6589L18.3424 25.6533L18.3486 25.6486L18.3611 25.6382L18.369 25.6321L18.374 25.6281L18.3868 25.618L18.3956 25.6111L18.3998 25.6079L18.4127 25.5981L18.4228 25.5904L18.426 25.5882L18.439 25.5784L18.4499 25.5702L18.4521 25.5685L18.4654 25.5589L18.4775 25.5503L18.4787 25.5495L18.492 25.5399L18.5051 25.5305L18.5056 25.5303L18.5189 25.5212L18.5324 25.5118L18.5332 25.5113L18.546 25.5027L18.5598 25.4933L18.5613 25.4921L18.5734 25.4844L18.5869 25.4753L18.5899 25.4736L18.6007 25.4665L18.6148 25.4576L18.6185 25.4554L18.6286 25.449L18.6424 25.4403L18.6473 25.4371L18.6567 25.4317L18.6705 25.4233L18.6764 25.4196L18.6848 25.4147L18.6988 25.4063L18.7414 25.3817L18.756 25.3738L18.8139 25.3422L18.8255 25.3361L18.8287 25.3348C18.8962 25.2993 18.9655 25.2673 19.0365 25.2372L19.0429 25.2343L19.0557 25.2291C19.088 25.2158 19.1205 25.2035 19.1533 25.1911L19.1715 25.1842L19.173 25.1838C19.2391 25.1601 19.3059 25.1384 19.3741 25.1197L19.3946 25.1138L19.4032 25.1113L19.4148 25.1086L19.4769 25.0928L19.4976 25.0879L19.505 25.0862L19.5183 25.0832L19.539 25.0788L19.5393 25.0785L19.56 25.0743L19.5735 25.0714L19.5809 25.0699L19.6019 25.0659L19.6083 25.0647L19.6231 25.062L19.643 25.0583L19.6443 25.0581L19.6652 25.0546L19.6778 25.0524L19.6864 25.0512L19.7078 25.0475L19.7128 25.0467L19.729 25.0445L19.7478 25.0415L19.7502 25.0413L19.7719 25.0386L19.7931 25.0359L19.8148 25.0332L19.8185 25.0327L19.8363 25.0309L19.854 25.029L19.8579 25.0287L19.8796 25.0265L19.8897 25.0255L19.9011 25.0245L19.923 25.0228H19.9255L19.9447 25.0213L19.9615 25.0203L19.9664 25.0199L19.9883 25.0186L19.9974 25.0181L20.0105 25.0176L20.0324 25.0166H20.0337L20.0544 25.0159L20.0697 25.0154H20.0763L20.0983 25.0149L20.1061 25.0147L20.1204 25.0144H20.1426L20.1744 25.0147H20.1796L20.2062 25.0152L20.2163 25.0154L20.2378 25.0162L20.2528 25.0166L20.2696 25.0174L20.2893 25.0181L20.3009 25.0189L20.326 25.0203L20.3324 25.0206L20.3622 25.0228H20.3637L20.395 25.0255L20.3985 25.0258L20.4261 25.0285L20.4342 25.0292L20.4571 25.0317L20.4702 25.0332L20.4882 25.0351L20.5062 25.0376L20.519 25.0391L20.5417 25.0423L20.5498 25.0435L20.5771 25.0475L20.5803 25.048L20.6109 25.0529L20.6126 25.0531L20.6412 25.0581L20.6479 25.0593L20.6715 25.0635L20.6829 25.0657L20.7019 25.0696L20.7179 25.0726L20.7319 25.0756L20.7526 25.08L20.762 25.082L20.7871 25.0879L20.7918 25.0891L20.8214 25.096H20.8216L20.8512 25.1034L20.8559 25.1046L20.8808 25.1113L20.8902 25.1138L20.9101 25.1192L20.9242 25.1231L20.9392 25.1276L20.9579 25.133L20.9685 25.1362L20.9915 25.1433L20.9976 25.1451L21.025 25.1537L21.0265 25.1542L21.0839 25.1739L21.0915 25.1764L21.1125 25.1838L21.1243 25.1882L21.1406 25.1944L21.1689 25.205L21.1896 25.2131L21.197 25.216L21.2525 25.239L21.2539 25.2392L21.2803 25.2508L21.335 25.2752L21.3493 25.2819L21.3622 25.288L21.3806 25.2966L21.3893 25.3008L21.4427 25.3274V25.3277L21.4957 25.3555L21.5039 25.3597L21.5219 25.3698L21.548 25.3844L21.5643 25.3935L21.5739 25.3992L21.5941 25.411L21.5997 25.4145L21.6759 25.4613L21.6823 25.465L21.7008 25.4773L21.7109 25.484L21.7257 25.4936L21.7397 25.5032L21.7503 25.5103L21.7681 25.5226L21.7747 25.5271L21.7964 25.5424L21.7991 25.5443L21.8233 25.5616L21.8243 25.5623L21.8472 25.5793L21.8519 25.5828L21.8711 25.5971L21.8792 25.6035L21.8945 25.6151L21.9064 25.6247L21.9179 25.6336L21.9332 25.6459L21.9411 25.652L21.9598 25.6678L21.9606 25.6681L21.9862 25.6898L21.9993 25.7006L22.0123 25.7119L22.0183 25.7169L22.056 25.7504L22.0638 25.7575L22.0747 25.7674L22.089 25.7807L22.0932 25.7844L22.1117 25.8019L22.1141 25.8041L22.1297 25.8194L22.1388 25.8283L22.1479 25.8369L22.1632 25.8522L22.1651 25.8544L22.1656 25.8546L22.2009 25.8909L22.213 25.9034L22.2356 25.9274L22.2364 25.9283L22.2529 25.9461L22.2598 25.9537L22.2696 25.9648L22.2827 25.9794L22.2867 25.9835L22.3032 26.0025L22.3051 26.005L22.3197 26.0215L22.3276 26.0311L22.3359 26.041L22.3495 26.0575L22.352 26.0604L22.3677 26.0802L22.3712 26.0841L22.3838 26.0999L22.3993 26.1198L22.4136 26.1383L22.4146 26.1396L22.4301 26.1598L22.4343 26.1654L22.4451 26.18L22.4747 26.2211L22.4895 26.2418L22.4947 26.2492L22.5038 26.2626L22.5139 26.2776L22.5178 26.2837L22.5319 26.3047L22.5331 26.3064L22.5459 26.3261C22.6741 26.5253 22.7791 26.7407 22.8555 26.9692C23.4598 26.877 24.0388 26.7094 24.583 26.4753L24.586 26.474L24.5887 26.4725L24.5914 26.4713L24.5943 26.4701L24.5973 26.4688L24.6 26.4676L24.603 26.4664L24.6059 26.4651L24.6086 26.4642C24.8075 26.3777 25.0025 26.282 25.1918 26.1785L25.1992 26.1746L25.2426 26.1504L25.2583 26.1415L25.2859 26.126L25.3246 26.1038L25.3902 26.0654L25.4148 26.0508L25.4555 26.0264L25.4572 26.0252L25.4999 25.9993L25.5203 25.9865L25.542 25.9732L25.5839 25.9466L25.5849 25.9461L25.6256 25.92L25.6487 25.9049L25.6672 25.8928L25.7086 25.8655L25.7123 25.8633C26.2479 25.5071 26.7325 25.079 27.1524 24.5947C27.8418 23.8001 28.3584 22.8497 28.6428 21.8034L28.6497 21.7812C28.8077 21.1914 28.8923 20.5711 28.8923 19.931C28.8923 19.7422 28.8854 19.5591 28.8721 19.3821L28.8644 19.2899C28.5117 19.4228 28.1393 19.5157 27.7531 19.563L27.7358 19.565L27.7011 19.5692L27.6838 19.5712L27.6666 19.5729L27.6528 19.5746L27.6491 19.5749L27.6318 19.5763L27.5798 19.5813L27.5623 19.5827L27.5448 19.5842L27.5303 19.5855H27.5273L27.5098 19.5869L27.4926 19.5882L27.4751 19.5894L27.4689 19.5896L27.4573 19.5904L27.4398 19.5914L27.4226 19.5924L27.407 19.5933H27.4048L27.3873 19.5943L27.3698 19.5948L27.3523 19.5958L27.3452 19.5961L27.3346 19.5963L27.3171 19.597L27.2993 19.5975L27.2828 19.598H27.2816L27.2641 19.5983L27.2464 19.5988L27.2286 19.599L27.2205 19.5993L27.2111 19.5995H27.1934H27.1756H27.1579C25.821 19.5995 24.6104 19.0575 23.7342 18.1813C22.858 17.3051 22.316 16.0942 22.316 14.7574V14.7381L22.3162 14.7187V14.6995V14.6948L22.3165 14.68L22.317 14.6608L22.3175 14.6415V14.6324L22.3177 14.6221L22.3184 14.6031L22.3189 14.5839L22.3194 14.5703L22.3197 14.5644L22.3204 14.5454L22.3214 14.5262L22.3224 14.5082V14.507L22.3234 14.488L22.3244 14.4688L22.3256 14.4498L22.3258 14.4463L22.3268 14.4306L22.3283 14.4116L22.3295 14.3924L22.33 14.385L22.331 14.3734L22.3325 14.3544L22.3342 14.3354L22.335 14.3236L22.3359 14.3164L22.3377 14.2977L22.3394 14.2785L22.3409 14.2625L22.3414 14.2595L22.3431 14.2408L22.3453 14.2218L22.3475 14.2031V14.2016L22.3495 14.1843L22.3517 14.1654L22.3542 14.1466L22.3549 14.1407L22.3567 14.1279L22.3591 14.1092L22.3616 14.0904L22.3628 14.0803L22.3643 14.0717L22.367 14.0532L22.3697 14.0345L22.3717 14.0199L22.3727 14.0157L22.3754 13.9973L22.3813 13.96L22.3877 13.9231L22.3912 13.9046L22.3917 13.9004L22.3944 13.8861L22.3978 13.8676L22.4084 13.8124L22.4121 13.7939L22.4158 13.7757L22.4195 13.7574L22.4234 13.7392L22.4439 13.6483L22.4481 13.6303L22.4525 13.6123L22.4538 13.6056L22.457 13.594L22.4614 13.576L22.4661 13.5581L22.4747 13.5248L22.4774 13.5139L22.4804 13.5028C22.4991 13.4328 22.5196 13.3636 22.541 13.2951L22.5447 13.2842C22.5896 13.143 22.6408 13.0042 22.6983 12.8689L22.4631 12.8421C22.2448 12.8211 22.0141 12.81 21.7718 12.81C20.9883 12.81 20.2348 12.9365 19.5304 13.1694H19.5299L19.4325 13.2026L19.4168 13.2081L19.4 13.214L19.368 13.2253L19.3601 13.2283L19.3039 13.2487L19.2718 13.2608L19.2477 13.2697L19.2398 13.2729L19.208 13.285L19.1917 13.2914L19.1762 13.2973L19.1444 13.3099L19.136 13.3131L19.1126 13.3224L19.0813 13.3352L19.0806 13.3355L19.0498 13.3481L19.0254 13.3582L19.0182 13.3614L18.9872 13.3747L18.9707 13.3813L18.9556 13.388L18.9246 13.4015L18.9159 13.4052L18.8935 13.4153L18.7698 13.4713L18.7533 13.4789L18.739 13.4856L18.7084 13.5004L18.6995 13.5043L18.6779 13.5149ZM29.1789 22.43C28.8376 23.441 28.2946 24.3596 27.5981 25.1384C26.9496 25.8633 26.1681 26.4661 25.2916 26.9093C25.5174 27.1392 25.7801 27.3325 26.07 27.4794C26.4719 27.683 26.9289 27.7981 27.4132 27.7981C28.2347 27.7981 28.9783 27.4651 29.5161 26.9273C30.0539 26.3895 30.3869 25.6456 30.3869 24.8247C30.3869 24.2652 30.2333 23.7427 29.9666 23.2978C29.7635 22.9591 29.4949 22.6634 29.1789 22.43ZM21.9951 26.7528L21.9938 26.7511C21.9667 26.7064 21.9379 26.6628 21.9081 26.6204L21.9073 26.6194L21.894 26.601L21.8928 26.5992L21.8805 26.5827L21.8773 26.5783L21.8669 26.5645L21.8617 26.5576L21.8531 26.5462L21.8457 26.5371L21.8388 26.5285L21.8297 26.5167L21.8248 26.5105L21.8132 26.4967L21.8102 26.4932L21.7967 26.4767L21.7957 26.4757L21.7809 26.4585L21.7794 26.457L21.7659 26.4412L21.7624 26.4375L21.7508 26.4245L21.7452 26.4183L21.7355 26.4075L21.7277 26.3991L21.72 26.391L21.7099 26.3801L21.7045 26.3742L21.6919 26.3616L21.6885 26.3582L21.6737 26.3431L21.6725 26.3419L21.6564 26.3259L21.6552 26.3249C21.5749 26.2463 21.4888 26.1738 21.3969 26.1088H21.3962C21.305 26.0437 21.2086 25.9858 21.1078 25.9355L21.1053 25.9345C21.0661 25.915 21.0265 25.8968 20.9858 25.8798L20.9843 25.879L20.937 25.8598L20.9207 25.8534L20.9123 25.8505L20.8626 25.8322L20.8566 25.83L20.8374 25.8236L20.8347 25.8226L20.813 25.8152H20.8123L20.7913 25.8083L20.7869 25.8071L20.7472 25.7952L20.7359 25.7918L20.725 25.7888L20.71 25.7849L20.7028 25.7829L20.6841 25.778L20.6804 25.777L20.658 25.7716L20.6577 25.7713L20.6353 25.7659L20.6321 25.7654L20.6126 25.761L20.6057 25.7595L20.59 25.7561L20.5791 25.7538L20.567 25.7514L20.5527 25.7487L20.5444 25.7469L20.5264 25.7437L20.5214 25.7427L20.4995 25.739H20.4983L20.4749 25.7354L20.4726 25.7349L20.4517 25.7317L20.4455 25.7309L20.4283 25.7287L20.4187 25.7275L20.4049 25.7255L20.3913 25.7243L20.3814 25.723L20.3642 25.7211L20.358 25.7206L20.3368 25.7186L20.3344 25.7183L20.3105 25.7164H20.3092L20.2868 25.7147L20.2819 25.7144L20.2629 25.7132L20.254 25.7129L20.239 25.7119L20.2264 25.7117L20.2151 25.7112L20.1986 25.7107H20.1909L20.1705 25.7102H20.1668L20.1426 25.71H20.1259L20.115 25.7102H20.1089L20.0921 25.7107H20.0874L20.0753 25.711L20.0601 25.7117H20.0586L20.0418 25.7122L20.0327 25.7127L20.0253 25.7132L20.0085 25.7142L20.0053 25.7144L19.992 25.7151L19.9782 25.7161L19.9755 25.7164L19.959 25.7176L19.9511 25.7183L19.9425 25.7191L19.926 25.7206L19.924 25.7208L19.9097 25.7223L19.8971 25.7238L19.8932 25.7243L19.8767 25.726L19.8705 25.7267L19.8607 25.728L19.8444 25.7304H19.8437L19.8281 25.7326L19.817 25.7341L19.8119 25.7351L19.7956 25.7376L19.7907 25.7383L19.7796 25.7403L19.764 25.7427H19.7635L19.7377 25.7477L19.7315 25.7489L19.7157 25.7519L19.7118 25.7526L19.6997 25.7551L19.6857 25.7583L19.6837 25.7585L19.6366 25.7691L19.6339 25.7699L19.6208 25.7731L19.6083 25.7763L19.6051 25.777L19.5826 25.7829L19.5743 25.7851C19.538 25.7948 19.5023 25.8056 19.4668 25.8172L19.4565 25.8206C19.3073 25.8704 19.1654 25.9355 19.0328 26.0148V26.0151L19.019 26.0232L19.0106 26.0284L18.9911 26.0402L18.9887 26.042L18.967 26.056L18.964 26.0577L18.9504 26.0666L18.9455 26.0698L18.9369 26.0755L18.9243 26.0841L18.9233 26.0846L18.9031 26.0989L18.8967 26.1031L18.8834 26.1125L18.8822 26.1137L18.8703 26.1221L18.8612 26.1287L18.8573 26.1317L18.8442 26.1413L18.8408 26.144L18.8312 26.1511L18.8203 26.1595L18.8186 26.161L18.8058 26.1711L18.8001 26.1753L18.7932 26.1812L18.7804 26.1911L18.7801 26.1913L18.7678 26.2014L18.7602 26.2076L18.7555 26.2118L18.7429 26.2221L18.7407 26.2241L18.7306 26.2327L18.6823 26.2759L18.6702 26.2867L18.6239 26.3311L18.612 26.3436C18.2207 26.735 17.9784 27.2763 17.9784 27.874C17.9784 28.4721 18.2207 29.0139 18.6113 29.4055C19.0029 29.7964 19.5444 30.0385 20.1426 30.0385C20.7403 30.0385 21.2818 29.7962 21.6729 29.4048C22.0643 29.0134 22.3066 28.4721 22.3066 27.874C22.3066 27.4633 22.1928 27.0796 21.9951 26.7528ZM15.9061 23.4723L15.9105 23.4688C15.9581 23.4323 16.0047 23.3949 16.0505 23.3559L16.0599 23.3483L16.084 23.3276L16.0857 23.3259L16.1079 23.3064L16.1205 23.2953L16.1321 23.2852L16.155 23.2643L16.1557 23.2638L16.1792 23.2421L16.189 23.233L16.2026 23.2204L16.2228 23.2012L16.2257 23.1984L16.2489 23.1763L16.2891 23.1366L16.2945 23.1312L16.3167 23.1085L16.3216 23.1038L16.3389 23.0856L16.383 23.039L16.3854 23.0368C16.4355 22.983 16.4838 22.9276 16.5309 22.8709L16.5378 22.8628L16.5513 22.8462C16.5848 22.8046 16.6176 22.7627 16.6499 22.7201L16.6524 22.7171L16.6691 22.6942L16.68 22.6796L16.6879 22.6683L16.7433 22.5897L16.7601 22.5658L16.7613 22.5633L16.7793 22.5367L16.7857 22.5271L16.797 22.5096C16.8261 22.465 16.8542 22.4194 16.8818 22.3733L16.8843 22.3693L16.8976 22.3462L16.9075 22.3289L16.9134 22.319L16.9287 22.2917L16.9306 22.2885L16.9439 22.2641L16.9531 22.2476L16.959 22.2367L16.9738 22.2089L16.975 22.2062L16.9883 22.181L16.9967 22.1648L17.0026 22.1529L17.0169 22.1248L17.0179 22.1231L17.0307 22.0967L17.0383 22.081L17.0445 22.0681L17.0578 22.0395L17.0682 22.0174L17.0711 22.011L17.078 21.9962L17.0842 21.9824L17.0968 21.9533L17.097 21.953L17.1093 21.9242L17.1155 21.9102L17.1219 21.8951L17.1335 21.8665L17.1337 21.8658L17.1458 21.8365L17.151 21.8229L17.1677 21.7798L17.168 21.7788L17.1687 21.7773L17.1801 21.7475L17.1847 21.7347L17.1909 21.7177L17.2005 21.6903L17.2015 21.6876L17.2119 21.6575L17.216 21.6454L17.222 21.6275L17.2308 21.6006L17.2321 21.5969L17.2417 21.5663L17.2454 21.555L17.2513 21.536L17.2589 21.5096L17.2604 21.5052L17.2693 21.4744L17.2725 21.464L17.2782 21.4436L17.2851 21.418L17.2865 21.4125L17.2947 21.3815L17.2971 21.3719L17.3028 21.3504L17.309 21.3253L17.3104 21.3191L17.3178 21.2876L17.3201 21.2787L17.3252 21.2563L17.3304 21.2321L17.3321 21.2247L17.3388 21.1927L17.3403 21.185L17.3452 21.1611L17.3499 21.1377L17.3514 21.1291L17.357 21.0971L17.3583 21.0901L17.3629 21.065L17.3666 21.0426L17.3681 21.033L17.3733 21.0007L17.3743 20.9948L17.3782 20.9684L17.3814 20.9467L17.3829 20.9359L17.3871 20.9036L17.3878 20.8984L17.3935 20.8501L17.395 20.8383L17.3984 20.8055L17.3989 20.8013L17.4016 20.7727L17.4036 20.7525L17.4046 20.7397L17.4073 20.7066L17.4076 20.7034L17.4098 20.6736L17.411 20.6544L17.4117 20.6403L17.4137 20.6071V20.6051L17.4152 20.5738L17.4159 20.5556L17.4164 20.5405L17.4174 20.507V20.506L17.4182 20.4735L17.4184 20.456L17.4186 20.4397V20.4062V20.3687L17.4184 20.3567L17.4174 20.312V20.3071L17.4172 20.2943L17.4159 20.2578V20.2571L17.4145 20.2199L17.4137 20.2088L17.4125 20.1829L17.411 20.1597L17.41 20.1462L17.4076 20.1109V20.1092L17.4046 20.0727L17.4039 20.0626L17.4014 20.036L17.3989 20.0141L17.3977 19.9998L17.394 19.9658L17.3938 19.963L17.3893 19.9271L17.3881 19.9177L17.3846 19.8906L17.3817 19.8696L17.3797 19.8548L17.3748 19.8221L17.3743 19.8186L17.3689 19.7829L17.3674 19.7745L17.3629 19.7471L17.3595 19.7272L17.3565 19.7114L17.3506 19.6801L17.3499 19.6759L17.343 19.6407L17.3413 19.633L17.3358 19.6054L17.3316 19.5864L17.3282 19.5702L17.3104 19.4935L17.3035 19.4654L17.2991 19.4474L17.2947 19.4307L17.287 19.4016L17.2856 19.3962L17.2759 19.3617L17.2745 19.356L17.2478 19.2653L17.2459 19.2591L17.2353 19.2254L17.2335 19.2204L17.2035 19.1312L17.2013 19.1246L17.1774 19.058L17.1717 19.043L17.1547 18.9994L17.152 18.9922C17.1308 18.9375 17.1081 18.8835 17.0842 18.83L17.0827 18.8271L17.0696 18.798L17.0635 18.7847L17.0549 18.7662L17.0435 18.7425L17.0243 18.7029L17.0231 18.7006L17.0088 18.6715L17.0024 18.6592L16.9814 18.6183L16.9812 18.6181L16.9767 18.6094L16.9605 18.5786L16.9595 18.5769L16.9437 18.5478L16.9373 18.5362L16.9269 18.5173L16.9146 18.4958L16.9097 18.4869L16.8922 18.4569L16.8914 18.4559L16.8744 18.4268L16.8678 18.416L16.8562 18.397L16.8436 18.3765L16.838 18.3674L16.8195 18.3378L16.8192 18.3373L16.8007 18.3085L16.7943 18.2986L16.7818 18.2797L16.7687 18.2599L16.7625 18.2506L16.7428 18.2217L16.7423 18.2212L16.7219 18.1917L16.6802 18.1333L16.6627 18.1094L16.659 18.1044C16.5457 17.9524 16.4219 17.8089 16.2878 17.6751L16.2846 17.6721L16.2595 17.647L16.2551 17.6425L16.2339 17.6221L16.2215 17.6105L16.208 17.5974L16.1878 17.5787L16.1816 17.573L16.1555 17.5489L16.1538 17.5472L16.1289 17.5247L16.1193 17.5163L16.102 17.5013L16.0845 17.4858L16.0751 17.4779L16.0493 17.4557L16.0478 17.4547L16.0204 17.4316L16.0135 17.4259L15.9928 17.4089L15.9775 17.3968L15.965 17.3865L15.9416 17.3677L15.9369 17.3643L15.9085 17.3423L15.9048 17.3391L15.8802 17.3207L15.8679 17.3113L15.8513 17.2992L15.8304 17.2839L15.8225 17.278L15.7934 17.2571L15.7927 17.2566L15.7392 17.2191L15.7345 17.2161L15.7163 17.2038L15.7049 17.1959L15.6973 17.191L15.6749 17.1762L15.6448 17.1565L15.6386 17.1526L15.6145 17.1373L15.5992 17.1277L15.5842 17.1183L15.5536 17.0996L15.5226 17.0813L15.5196 17.0794L15.4915 17.0628L15.4604 17.0451L15.4388 17.0328L15.4289 17.0274L15.3658 16.9931L15.3567 16.9882L15.3338 16.9763L15.3153 16.9667L15.3017 16.9598L15.2736 16.9455L15.2694 16.9436L15.2369 16.9278L15.2315 16.9251L15.2044 16.9123L15.1716 16.897L15.1464 16.8854L15.1386 16.8819L15.1055 16.8674L15.0052 16.825L14.9971 16.8216C14.552 16.6426 14.0654 16.5443 13.5567 16.5443C12.4895 16.5443 11.5238 16.9761 10.8263 17.6738C10.1278 18.3726 9.69554 19.3387 9.69554 20.4062C9.69554 21.4727 10.1278 22.4383 10.8261 23.1366C11.5241 23.8351 12.49 24.2674 13.5567 24.2674C14.4408 24.2674 15.2554 23.9709 15.9061 23.4723ZM23.1979 13.524L23.1964 13.5285L23.1831 13.5728L23.1823 13.5743L23.169 13.6207L23.1688 13.6221L23.1562 13.667L23.1552 13.6712L23.1439 13.7136L23.1419 13.721L23.1397 13.7291L23.1293 13.7708L23.1281 13.7754L23.1244 13.791L23.1207 13.8062L23.1175 13.8208L23.117 13.822L23.1136 13.8373L23.1101 13.8531L23.1067 13.8686L23.1062 13.8711L23.1035 13.8841L23.1 13.8997L23.0968 13.9154L23.0956 13.9216L23.0936 13.9312L23.0904 13.9467L23.0874 13.9625L23.0855 13.9721L23.0842 13.9783L23.0815 13.9941L23.0786 14.0098L23.0761 14.0234L23.0756 14.0256L23.0675 14.0732V14.0744L23.0598 14.1207L23.0593 14.1257L23.0482 14.2008L23.0463 14.2169L23.0445 14.2292L23.0443 14.2331L23.0421 14.2492L23.0384 14.2812V14.2814L23.0347 14.3137L23.0332 14.33L23.0327 14.3332L23.0315 14.3463L23.03 14.3625L23.0285 14.3788L23.0278 14.3857L23.027 14.3948L23.0256 14.4113L23.0243 14.4276L23.0236 14.4384L23.0231 14.4439L23.0219 14.4601L23.0206 14.4766L23.0199 14.4912L23.0197 14.4929L23.0187 14.5094L23.0177 14.5259L23.0169 14.5422L23.0167 14.5439L23.0162 14.5587L23.0152 14.5752L23.0147 14.5915L23.0145 14.5972L23.014 14.6083L23.0135 14.6245L23.013 14.6413L23.0128 14.6504V14.6578L23.0123 14.6743L23.012 14.6908L23.0118 14.7039L23.0115 14.7076V14.7241V14.7409V14.7574C23.0115 15.9027 23.4756 16.9399 24.2256 17.6899C24.9756 18.4399 26.0125 18.9042 27.1579 18.9042H27.1734L27.1884 18.904H27.204L27.2114 18.9037H27.2192L27.2496 18.903L27.2648 18.9027H27.2651L27.2954 18.9018L27.3107 18.9015L27.3183 18.901L27.3257 18.9008L27.341 18.9003L27.3563 18.8995L27.3713 18.8988L27.3863 18.8981L27.4016 18.8971L27.4164 18.8963L27.4241 18.8956L27.4317 18.8953L27.4467 18.8944L27.4618 18.8931L27.4768 18.8921V18.8919L27.4918 18.8909L27.5069 18.8897L27.5219 18.8884L27.5295 18.8877L27.5665 18.8845L27.5813 18.883L27.582 18.8828C28.5578 18.7837 29.4325 18.3474 30.0904 17.6896C30.8401 16.9399 31.3045 15.9027 31.3045 14.7574C31.3045 13.6118 30.8404 12.5746 30.0909 11.8246C29.3406 11.0749 28.3035 10.611 27.1579 10.611C26.0125 10.611 24.9756 11.0751 24.2256 11.8251C23.7568 12.2942 23.3997 12.8748 23.1979 13.524Z" fill="#012C0E" stroke="#012C0E" stroke-width="0.3"/>
<circle cx="20.8645" cy="20.1355" r="19.6355" stroke="#012C0E"/>
<line x1="5.78026" y1="33.4337" x2="34.9048" y2="6.10701" stroke="#012C0E"/>
</svg>
