<svg width="41" height="41" viewBox="0 0 41 41" fill="none" xmlns="http://www.w3.org/2000/svg">
<path d="M14.7629 32.3479L15.263 32.3905L15.3038 31.8903C15.3679 31.1024 15.4717 30.5545 15.5699 30.0652C15.5774 30.0275 15.585 29.99 15.5925 29.9527C15.6828 29.5047 15.77 29.0726 15.803 28.549L15.8087 28.4576L15.7817 28.3701C15.5789 27.7132 14.9828 26.0844 14.3749 24.8979C14.3724 24.8858 14.3685 24.865 14.3636 24.8334C14.3524 24.7609 14.34 24.6597 14.3267 24.5299C14.3004 24.2711 14.2728 23.9188 14.2449 23.495C14.1892 22.6485 14.1333 21.533 14.0835 20.3448C13.9838 17.9666 13.9094 15.3144 13.9094 13.965V13.6156L13.5813 13.4954C12.9937 13.2803 12.473 13.1182 12.0345 12.9816C11.875 12.932 11.7264 12.8857 11.5895 12.8415C11.0547 12.6689 10.7167 12.5332 10.4827 12.3602C10.1307 12.0999 9.91041 11.6771 9.93889 10.291C10.4 10.2355 10.9067 10.1906 11.4449 10.145C11.5201 10.1386 11.5959 10.1323 11.6722 10.1258C12.3047 10.0725 12.9722 10.0163 13.6333 9.93944L13.9488 9.90277L14.0497 9.60168C14.102 9.44575 14.1396 9.32229 14.1723 9.21517C14.2128 9.08245 14.2457 8.97482 14.2891 8.86161C14.3555 8.68864 14.4096 8.61584 14.4666 8.57001C14.5256 8.52255 14.6435 8.45982 14.9187 8.42254C15.1967 8.38491 15.5931 8.3785 16.1726 8.41189L16.5167 8.43173L16.6577 8.11716C16.8131 7.77035 16.8663 7.42939 16.8761 7.13471C16.9806 7.24598 17.0796 7.35909 17.1617 7.46004C17.2208 7.53261 17.2677 7.59472 17.3005 7.64231C17.318 7.66764 17.3274 7.68316 17.3317 7.69026C17.392 7.87235 17.4024 7.97806 17.4186 8.14113C17.4254 8.21036 17.4333 8.28994 17.4465 8.39009C17.4911 8.72971 17.5893 9.14847 17.9023 9.87799L17.9032 9.88003C18.5472 11.3621 18.9378 12.9448 19.2941 14.5854C19.3616 14.8958 19.4278 15.2088 19.4945 15.5235C19.7772 16.8583 20.0665 18.2241 20.4766 19.5527L20.5076 19.6532L20.5766 19.7327C21.3407 20.6142 22.1563 21.44 22.9582 22.2521C22.9893 22.2835 23.0204 22.315 23.0514 22.3464C23.8873 23.193 24.7065 24.0272 25.4633 24.9183C26.9706 26.693 28.2152 28.6763 28.7744 31.3404L28.8781 31.8341L29.3708 31.7261C29.6914 31.6558 30.0714 31.464 30.3848 31.2308C30.6852 31.0074 31.033 30.6658 31.1436 30.2417L31.1542 30.201L31.1578 30.1591C31.2099 29.5631 31.0394 28.9925 30.8192 28.4996C30.6166 28.0458 30.3525 27.6176 30.1347 27.2645C30.1162 27.2345 30.098 27.205 30.0802 27.1761C29.9631 26.9857 29.8654 26.8238 29.7915 26.6824C29.759 26.6202 29.7346 26.5683 29.7165 26.5255C29.8583 26.5196 30.0388 26.5792 30.2634 26.7653C30.5126 26.9717 30.7652 27.2946 30.9956 27.6927C31.4605 28.496 31.7604 29.4728 31.7889 30.0714L31.7891 30.074C31.8294 30.8361 31.531 31.3575 31.0066 31.7502C30.4537 32.1642 29.6401 32.4377 28.6824 32.6069C27.1832 32.8716 25.4992 32.8578 24.2312 32.8475C23.8764 32.8446 23.5541 32.8419 23.2776 32.8458H23.2736H23.2661H23.2585H23.2509H23.2433H23.2356H23.2278H23.22H23.2121H23.2042H23.1962H23.1882H23.1801H23.1719H23.1637H23.1555H23.1472H23.1388H23.1304H23.1219H23.1134H23.1049H23.0963H23.0876H23.0789H23.0701H23.0613H23.0524H23.0435H23.0346H23.0255H23.0165H23.0074H22.9982H22.989H22.9798H22.9705H22.9611H22.9517H22.9423H22.9328H22.9233H22.9137H22.9041H22.8944H22.8847H22.875H22.8652H22.8553H22.8455H22.8355H22.8256H22.8156H22.8055H22.7954H22.7853H22.7751H22.7649H22.7546H22.7443H22.734H22.7236H22.7132H22.7027H22.6922H22.6817H22.6711H22.6605H22.6498H22.6391H22.6284H22.6176H22.6068H22.596H22.5851H22.5742H22.5633H22.5523H22.5413H22.5302H22.5191H22.508H22.4968H22.4856H22.4744H22.4632H22.4519H22.4405H22.4292H22.4178H22.4064H22.3949H22.3834H22.3719H22.3604H22.3488H22.3372H22.3256H22.3139H22.3022H22.2905H22.2787H22.267H22.2551H22.2433H22.2314H22.2195H22.2076H22.1957H22.1837H22.1717H22.1597H22.1476H22.1356H22.1235H22.1113H22.0992H22.087H22.0748H22.0626H22.0503H22.0381H22.0258H22.0134H22.0011H21.9887H21.9764H21.964H21.9515H21.9391H21.9266H21.9141H21.9016H21.8891H21.8765H21.864H21.8514H21.8388H21.8262H21.8135H21.8009H21.7882H21.7755H21.7628H21.75H21.7373H21.7245H21.7118H21.699H21.6862H21.6733H21.6605H21.6476H21.6348H21.6219H21.609H21.5961H21.5832H21.5702H21.5573H21.5443H21.5313H21.5184H21.5054H21.4924H21.4793H21.4663H21.4533H21.4402H21.4272H21.4141H21.401H21.3879H21.3748H21.3617H21.3486H21.3355H21.3224H21.3092H21.2961H21.2829H21.2698H21.2566H21.2435H21.2303H21.2171H21.2039H21.1907H21.1775H21.1644H21.1511H21.1379H21.1247H21.1115H21.0983H21.0851H21.0719H21.0587H21.0454H21.0322H21.019H21.0058H20.9925H20.9793H20.9661H20.9528H20.9396H20.9264H20.9132H20.8999H20.8867H20.8735H20.8603H20.8471H20.8339H20.8206H20.8074H20.7942H20.781H20.7678H20.7547H20.7415H20.7283H20.7151H20.7019H20.6888H20.6756H20.6625H20.6493H20.6362H20.623H20.6099H20.5968H20.5837H20.5706H20.5575H20.5444H20.5314H20.5183H20.5052H20.4922H20.4792H20.4661H20.4531H20.4401H20.4271H20.4142H20.4012H20.3882H20.3753H20.3624H20.3494H20.3365H20.3237H20.3108H20.2979H20.2851H20.2722H20.2594H20.2466H20.2338H20.2211H20.2083H20.1956H20.1829H20.1701H20.1575H20.1448H20.1321H20.1195H20.1069H20.0943H20.0817H20.0692H20.0566H20.0441H20.0316H20.0191H20.0067H19.9942H19.9818H19.9694H19.9571H19.9447H19.9324H19.9201H19.9078H19.8955H19.8833H19.8711H19.8589H19.8467H19.8346H19.8225H19.8104H19.7983H19.7863H19.7743H19.7623H19.7503H19.7384H19.7265H19.7146H19.7027H19.6909H19.6791H19.6674H19.6556H19.6439H19.6322H19.6206H19.609H19.5974H19.5858H19.5743H19.5628H19.5513H19.5399H19.5285H19.5171H19.5058H19.4944H19.4832H19.4719H19.4607H19.4495H19.4384H19.4273H19.4162H19.4052H19.3942H19.3832H19.3723H19.3614H19.3505H19.3397H19.3289H19.3182H19.3075H19.2968H19.2862H19.2756H19.265H19.2545H19.244H19.2336H19.2232H19.2128H19.2025H19.1922H19.182H19.1718H19.1616H19.1515H19.1414H19.1314H19.1214H19.1114H19.1015H19.0917H19.0819H19.0721H19.0624H19.0527H19.043H19.0334H19.0239H19.0144H19.0049H18.9955H18.9861H18.9768H18.9675H18.9583H18.9491H18.94H18.9309H18.9219H18.9129H18.904H18.8951H18.8862H18.8774H18.8687H18.86H18.8514H18.8428H18.8342H18.8258H18.8173H18.8089H18.8006H18.7923H18.7841H18.7759H18.7678H18.7597H18.7517H18.7438H18.7359H18.728H18.7202H18.7125H18.7048H18.6972H18.6896H18.6821H18.6746H18.6672H18.6599H18.6588C18.6445 32.7578 18.6361 32.6754 18.6358 32.6071C18.7334 32.5719 18.869 32.5337 19.0371 32.4927C19.2456 32.4418 19.4518 32.398 19.6631 32.3532C19.8382 32.316 20.0168 32.2781 20.2034 32.2347L21.0688 32.0335L20.4477 31.3982C20.0221 30.9628 19.7758 30.6822 19.7093 30.3911C19.6587 30.1697 19.6928 29.8065 20.2902 29.164L20.8633 28.5477L20.0479 28.3392C19.2433 28.1334 18.0361 27.7326 17.5148 26.6659L16.5699 26.9516C16.6087 27.2425 16.6081 27.5014 16.6073 27.8221C16.6072 27.8684 16.6071 27.9159 16.6071 27.965C16.6071 28.3325 16.6149 28.7547 16.6926 29.2965C16.565 30.0725 16.3579 30.7407 16.1471 31.3672C16.1127 31.4697 16.0777 31.572 16.0428 31.6742C15.9086 32.0672 15.775 32.4583 15.6724 32.8458H15.6706H15.6666H15.6627H15.6587H15.6547H15.6506H15.6466H15.6426H15.6385H15.6344H15.6304H15.6263H15.6222H15.6181H15.6139H15.6098H15.6056H15.6015H15.5973H15.5931H15.5889H15.5847H15.5805H15.5763H15.5721H15.5678H15.5636H15.5593H15.555H15.5507H15.5464H15.5421H15.5378H15.5335H15.5291H15.5248H15.5204H15.5161H15.5117H15.5073H15.5029H15.4985H15.494H15.4896H15.4852H15.4807H15.4762H15.4718H15.4673H15.4628H15.4583H15.4538H15.4492H15.4447H15.4402H15.4356H15.431H15.4265H15.4219H15.4173H15.4127H15.4081H15.4035H15.3988H15.3942H15.3896H15.3849H15.3802H15.3756H15.3709H15.3662H15.3615H15.3568H15.352H15.3473H15.3426H15.3378H15.3331H15.3283H15.3235H15.3187H15.3139H15.3091H15.3043H15.2995H15.2947H15.2899H15.285H15.2802H15.2753H15.2704H15.2656H15.2607H15.2558H15.2509H15.246H15.241H15.2361H15.2312H15.2262H15.2213H15.2163H15.2114H15.2064H15.2014H15.1964H15.1914H15.1864H15.1814H15.1764H15.1714H15.1663H15.1613H15.1562H15.1512H15.1461H15.141H15.136H15.1309H15.1258H15.1207H15.1156H15.1105H15.1053H15.1002H15.0951H15.0899H15.0848H15.0796H15.0744H15.0693H15.0641H15.0589H15.0537H15.0485H15.0433H15.0381H15.0329H15.0277H15.0224H15.0172H15.012H15.0067H15.0014H14.9962H14.9909H14.9856H14.9804H14.9751H14.9698H14.9645H14.9592H14.9539H14.9485H14.9432H14.9379H14.9326H14.9272H14.9219H14.9165H14.9112H14.9058H14.9004H14.8951H14.8897H14.8843H14.8789H14.8735H14.8681H14.8627H14.8573H14.8519H14.8465H14.841H14.8356H14.8302H14.8247H14.8193H14.8138H14.8084H14.8029H14.7974H14.792H14.7865H14.781H14.7755H14.77H14.7645H14.759H14.7535H14.748H14.7425H14.737H14.7315H14.7259H14.7204H14.7149H14.7093H14.7038H14.6982H14.6927H14.6871H14.6816H14.676H14.6704H14.6649H14.6593H14.6537H14.6481H14.6425H14.6369H14.6314H14.6258H14.6202H14.6145H14.6089H14.6033H14.5977H14.5921H14.5865H14.5808H14.5752H14.5696H14.5639H14.5583H14.5527H14.547H14.5414H14.5357H14.5301H14.5244H14.5188H14.5131H14.5074H14.5018H14.4961H14.4904H14.4847H14.4791H14.4734H14.4677H14.462H14.4563H14.4506H14.4449H14.4392H14.4335H14.4278H14.4221H14.4164H14.4107H14.405H14.3993H14.3936H14.3879H14.3821H14.3764H14.3707H14.365H14.3593H14.3535H14.3478H14.3421H14.3363H14.3306H14.3249H14.3191H14.3134H14.3077H14.3019H14.2962H14.2904H14.2847H14.2789H14.2732H14.2674H14.2617H14.2559H14.2502H14.2444H14.2387H14.2329H14.2272H14.2214H14.2156H14.2099H14.2041H14.1984H14.1926H14.1868H14.1811H14.1753H14.1695H14.1638H14.158H14.1523H14.1465H14.1407H14.135H14.1292H14.1234H14.1177H14.1119H14.1061H14.1003H14.0946H14.0888H14.083H14.0773H14.0715H14.0657H14.06H14.0542H14.0514C14.0733 32.7754 14.1275 32.6921 14.2271 32.6058C14.3274 32.5189 14.4528 32.4476 14.5723 32.4008C14.6783 32.3593 14.7431 32.3509 14.7597 32.3488C14.764 32.3482 14.7651 32.3481 14.7629 32.3479ZM18.5357 32.6494C18.536 32.6493 18.5362 32.6492 18.5365 32.649C18.5309 32.6529 18.5298 32.6529 18.5357 32.6494Z" stroke="#012C0E"/>
<circle cx="20.8645" cy="20.1355" r="19.6355" stroke="#012C0E"/>
<line x1="5.78026" y1="33.4337" x2="34.9048" y2="6.10701" stroke="#012C0E"/>
</svg>
