<svg width="34" height="34" viewBox="0 0 34 34" fill="none" xmlns="http://www.w3.org/2000/svg">
<path d="M17.5397 32.9999C15.9877 32.9999 14.4834 32.4375 13.2482 31.3657C11.5646 29.9071 10.6 27.7229 10.6 25.3737C10.6 24.7834 10.6636 24.192 10.7874 23.6182L2.06667 23.6135C1.47716 23.6135 1 23.0886 1 22.4401C1 21.7915 1.47716 21.2666 2.06667 21.2666H10.7948C11.4501 21.2666 12.0574 21.5897 12.4624 22.1537C12.8699 22.7221 13.0156 23.4543 12.8624 24.1615C12.7771 24.5577 12.7333 24.9657 12.7333 25.3737C12.7333 26.9997 13.4021 28.5123 14.5687 29.523C15.7314 30.5326 17.2478 30.8865 18.7269 30.4958C20.0748 30.1395 21.2364 29.1103 21.8331 27.7433C22.3383 26.5835 22.4642 25.3357 22.1975 24.1345C22.0443 23.4457 22.1861 22.7283 22.5872 22.167C22.9957 21.5956 23.6094 21.2666 24.2718 21.2666H31.9333C32.5228 21.2666 33 21.7915 33 22.4401C33 23.0886 32.5228 23.6135 31.9333 23.6135H24.2718C24.6551 25.3119 24.478 27.1041 23.7563 28.7587C22.8844 30.7559 21.1906 32.2583 19.2251 32.7785C18.6647 32.9268 18.099 32.9999 17.5397 32.9999Z" fill="#012C0E" stroke="white"/>
<path d="M17.5335 28.7333C15.4751 28.7333 13.8 26.9913 13.8 24.8506C13.8 23.7953 14.2178 22.7913 14.9386 22.0654C15.0897 14.8104 19.6533 5.19679 24.9053 1.21277C25.2979 0.91473 25.8333 0.93174 26.2106 1.2516C26.5857 1.5722 26.7055 2.11726 26.5011 2.57542L26.1281 3.4089C23.9709 8.2253 20.395 16.2081 20.3157 22.2799C20.9252 22.9884 21.2669 23.9007 21.2669 24.8506C21.2669 26.9913 19.5918 28.7333 17.5335 28.7333ZM21.8212 7.96608C19.0211 12.3369 17.0264 18.0914 17.0691 22.5743C17.0723 22.9381 16.9034 23.2817 16.6172 23.4917C16.1887 23.8053 15.9334 24.3133 15.9334 24.8506C15.9334 25.7681 16.6513 26.5147 17.5335 26.5147C18.4156 26.5147 19.1335 25.7681 19.1335 24.8506C19.1335 24.3655 18.9294 23.9169 18.5596 23.5897C18.3264 23.3837 18.1888 23.0827 18.1834 22.7632C18.1084 18.1576 19.9335 12.6268 21.8212 7.96608Z" fill="#012C0E" stroke="white"/>
</svg>
