<svg width="64" height="64" viewBox="0 0 64 64" fill="none" xmlns="http://www.w3.org/2000/svg">
<g clip-path="url(#clip0_862_630)">
<rect width="64" height="64" fill="#F3F6F5"/>
<path d="M55.2889 64H8.71111C3.91111 64 0 60.0889 0 55.2889V8.71111C0 3.91111 3.91111 0 8.71111 0H55.2444C60.0889 0 64 3.91111 64 8.71111V55.2444C64 60.0889 60.0889 64 55.2889 64Z" fill="#F3F6F5"/>
<path d="M6 14.0119V49.7545H12.6379V14.0119H6ZM55.2239 16.3153C54.2151 15.2079 52.9207 14.3858 51.4759 13.9348V49.7545H58V25.0326C58 21.2477 57.0717 18.3277 55.2239 16.3153Z" fill="#012C0E"/>
<path d="M49.418 20.2289C49.4191 20.2511 49.4133 20.2732 49.4014 20.2923C49.3895 20.3113 49.3722 20.3264 49.3514 20.3356C49.3306 20.3449 49.3075 20.3478 49.285 20.344C49.2625 20.3402 49.2418 20.33 49.2254 20.3145C47.9293 19.2184 46.0114 18.6789 43.4981 18.6789C41.8368 18.6087 40.204 19.1186 38.8919 20.1175C37.6402 21.1409 36.7085 22.4882 36.2035 24.0052C35.5988 25.7444 35.3026 27.5718 35.3278 29.4086V49.7547H28.7336V26.5913C28.7336 23.8768 28.0768 21.8815 26.772 20.5971C25.4672 19.3126 23.4355 18.6875 20.7208 18.6875C19.0816 18.6224 17.4727 19.1327 16.1846 20.1261C15.6281 20.5637 15.1386 21.077 14.7309 21.6504V21.4449C14.7292 20.2375 15.0137 19.0462 15.5623 17.9645C16.1108 16.8829 16.9083 15.9403 17.8922 15.2109C19.7846 13.9082 22.0595 13.2439 24.3725 13.3184C27.963 13.3184 30.6776 14.3203 32.5079 16.3584C34.1455 18.1481 35.0475 20.6399 35.2402 23.8168C35.553 22.5435 35.996 21.3042 36.5624 20.1175C37.4764 18.1658 38.8876 16.4764 40.6608 15.2109C40.7984 15.1099 40.945 15.021 41.0987 14.9454C44.8818 13.0101 49.418 16.0672 49.418 20.2289Z" fill="#82C75B"/>
</g>
<defs>
<clipPath id="clip0_862_630">
<rect width="64" height="64" fill="white"/>
</clipPath>
</defs>
</svg>
