<svg width="158" height="36" viewBox="0 0 158 36" fill="none" xmlns="http://www.w3.org/2000/svg">
<rect x="0.72699" width="157" height="35.1564" rx="7.70552" fill="#0921FF"/>
<path fill-rule="evenodd" clip-rule="evenodd" d="M35.056 11.3024L34.913 11.4001L36.6595 13.7175L36.7966 13.6029C37.7843 12.7732 39.4961 12.2154 42.03 12.2154C45.5367 12.2154 47.4575 13.2767 48.0814 14.6588H41.8641V17.2505H47.8524C47.0534 18.4237 45.1786 19.2821 42.0297 19.2821C39.5019 19.2821 37.79 18.7243 36.802 17.8942L36.6648 17.78L34.9157 20.1028L35.0617 20.2001C36.6303 21.2443 38.9406 21.8769 42.0297 21.8769C45.1183 21.8769 47.5804 21.2045 49.149 20.1001C50.7236 18.99 51.4908 17.4507 51.4908 15.7542C51.4908 14.0576 50.721 12.516 49.1463 11.4082C47.5781 10.3046 45.2159 9.63184 42.03 9.63184C38.8434 9.63184 36.6249 10.264 35.0563 11.3083L35.056 11.3024ZM12.7668 21.359L12.8214 21.1529C13.7972 17.4279 15.0914 14.6758 16.7717 12.8534C18.4582 11.0224 20.5277 10.1381 23.0271 10.1381C25.526 10.1381 27.5932 11.0251 29.282 12.8534C30.9623 14.6758 32.2593 17.431 33.2327 21.1587L33.2869 21.3648H30.1041L30.0726 21.2447C29.0534 17.6366 27.8395 15.617 26.6144 14.4984C25.3947 13.3856 24.1496 13.1535 23.0274 13.1535C21.9049 13.1535 20.6598 13.3883 19.4432 14.4984C18.2177 15.617 17.0011 17.6339 15.985 21.242L15.9504 21.3621H12.7668V21.359ZM106.608 21.3648L106.662 21.1587C107.638 17.431 108.932 14.6785 110.613 12.8534C112.302 11.0224 114.372 10.1381 116.868 10.1381C119.364 10.1381 121.437 11.0251 123.123 12.8561C124.803 14.6816 126.097 17.4337 127.074 21.1587L127.128 21.3648H123.944L123.91 21.2447C122.894 17.6366 121.677 15.617 120.452 14.4984C119.235 13.3856 117.99 13.1535 116.868 13.1535C115.745 13.1535 114.5 13.3883 113.284 14.4984C112.055 15.617 110.842 17.6366 109.822 21.2443L109.791 21.3644L106.608 21.3648ZM52.3102 12.7302V10.1381H68.8968V12.7306H62.1894V21.3594H59.0173V12.7302H52.3102ZM101.506 14.6557C101.489 14.1893 101.409 13.843 101.28 13.5858C101.161 13.3288 100.96 13.1187 100.71 12.9878C100.47 12.8619 100.184 12.7933 99.863 12.7592C99.5396 12.7244 99.1934 12.7244 98.8385 12.7244H89.4684V10.1354H99.0044V10.1412C99.6571 10.1412 100.318 10.1466 100.939 10.2125C101.615 10.2841 102.262 10.427 102.82 10.7245C103.382 11.0224 103.851 11.4713 104.177 12.1383C104.501 12.8018 104.681 13.6772 104.681 14.8214V21.3559H93.8686C92.4687 21.3559 91.0231 21.3559 89.9293 20.9469C89.3742 20.7381 88.8986 20.4236 88.5637 19.9398C88.2317 19.4564 88.0485 18.8242 88.0485 18.0058C88.0485 17.1877 88.2317 16.5525 88.5637 16.0718C88.8986 15.5884 89.3742 15.2739 89.9293 15.0647C91.0231 14.6557 92.4687 14.6557 93.8686 14.6557H101.506ZM93.8912 18.7727H101.509V17.2536H93.8912C93.1759 17.2536 92.4886 17.2536 91.9762 17.3651C91.7215 17.4193 91.5325 17.4995 91.4065 17.6026C91.346 17.6514 91.2977 17.7138 91.2654 17.7849C91.2331 17.8559 91.2178 17.9335 91.2205 18.0116C91.2205 18.1948 91.2893 18.3207 91.4065 18.4206C91.5325 18.5268 91.7215 18.6038 91.9762 18.6581C92.4886 18.77 93.1759 18.77 93.8912 18.77V18.7727ZM139.675 14.6557V14.6615H132.226V10.1381H129.054V21.359H139.867C141.267 21.359 142.713 21.359 143.806 20.95C144.362 20.7408 144.837 20.4263 145.169 19.9429C145.504 19.4595 145.687 18.8273 145.687 18.0089C145.687 17.1904 145.504 16.5552 145.169 16.0749C144.837 15.5915 144.362 15.2766 143.806 15.0678C142.713 14.6588 141.267 14.6588 139.867 14.6588H139.675V14.6557ZM139.842 18.7727H132.226V17.2536H139.842C140.56 17.2536 141.247 17.2536 141.757 17.3651C142.011 17.4193 142.203 17.4995 142.329 17.6026C142.446 17.7025 142.512 17.8284 142.512 18.0116C142.512 18.1948 142.446 18.3207 142.329 18.4206C142.203 18.5268 142.011 18.6038 141.757 18.6581C141.247 18.77 140.56 18.77 139.842 18.77V18.7727ZM70.7347 10.1381L77.2904 20.0114L73.6289 25.5245H77.4133L87.6305 10.1381H83.8488L79.0794 17.3167L74.3131 10.1385L70.7347 10.1381Z" fill="white"/>
</svg>
