<svg width="147" height="24" viewBox="0 0 147 24" fill="none" xmlns="http://www.w3.org/2000/svg">
<g clip-path="url(#clip0_293_75)">
<path d="M27.6473 23.9598C25.9883 23.9916 24.3512 23.5837 22.9081 22.7791C21.5202 21.9846 20.3985 20.8094 19.6804 19.3978C18.9245 17.7761 18.5331 16.0134 18.5331 14.2297C18.5331 12.446 18.9245 10.6833 19.6804 9.0616C20.391 7.66248 21.4975 6.4946 22.8672 5.69819C24.2699 4.90068 25.8675 4.49399 27.488 4.52189C29.0981 4.47888 30.6916 4.85211 32.1088 5.60426C33.3989 6.31612 34.4411 7.39304 35.0997 8.69484C35.8305 10.1872 36.188 11.8295 36.1423 13.485C36.1423 13.7832 36.1286 14.0605 36.1013 14.3169C36.0739 14.5853 36.0512 14.8134 36.0239 14.9923H21.1554V12.5592H33.9388L33.1148 13.7176C33.1148 11.6065 32.6156 10.0098 31.6171 8.92743C30.6185 7.84506 29.2285 7.30387 27.447 7.30387C26.6867 7.26963 25.9283 7.40288 25.2272 7.69386C24.5262 7.98484 23.9003 8.42616 23.3953 8.98555C22.3968 10.1037 21.899 11.7839 21.9021 14.0262V14.4734C21.8677 15.7196 22.102 16.9588 22.5895 18.1097C23.003 19.0601 23.7039 19.8626 24.5971 20.4086C25.5305 20.9507 26.5997 21.225 27.6837 21.2003C28.7632 21.238 29.8377 21.0394 30.8295 20.6188C31.5648 20.2939 32.212 19.8036 32.7188 19.1876C33.1305 18.6794 33.4747 18.1218 33.7431 17.5282L35.8646 19.8093C35.0936 21.0052 34.0512 22.0095 32.8189 22.7433C31.4714 23.5543 29.7475 23.9598 27.6473 23.9598Z" fill="#012C0E"/>
<path d="M46.8042 23.5707H42.3837L37.426 4.90649H41.241L43.6811 16.4235L44.6235 21.1376L45.8072 16.4235L49.2671 4.90649H53.4736L56.897 16.4235L58.1171 21.1376L59.0276 16.4235L61.4678 4.90649H65.2828L60.3251 23.5707H55.8773L52.6131 12.6352L51.3931 7.65268L50.0956 12.6352L46.8042 23.5707Z" fill="#012C0E"/>
<path d="M74.9295 23.9598C73.648 23.965 72.3738 23.7687 71.1554 23.3784C70.0036 23.0238 68.9387 22.4391 68.0279 21.6609C67.1327 20.877 66.4492 19.8874 66.0385 18.7805L68.5196 16.8886C68.7563 17.6324 69.1434 18.3215 69.6577 18.9147C70.2473 19.5995 70.9885 20.1426 71.8247 20.5025C72.8435 20.9247 73.9425 21.1275 75.0479 21.0973C76.0014 21.1458 76.9491 20.9254 77.7793 20.4622C78.106 20.2694 78.3735 19.9935 78.5538 19.6636C78.7341 19.3338 78.8204 18.9622 78.8037 18.5882C78.8214 18.2088 78.7194 17.8333 78.5116 17.5131C78.3038 17.1928 78.0003 16.9435 77.6428 16.7992C76.7277 16.3952 75.7727 16.0849 74.7929 15.8733L72.3118 15.2919C71.3981 15.0842 70.5087 14.7845 69.6577 14.3974C68.808 14.0207 68.0608 13.4522 67.4771 12.738C66.8658 11.9302 66.5585 10.9392 66.6075 9.93373C66.5775 9.17364 66.7334 8.41753 67.0622 7.72883C67.3909 7.04012 67.8828 6.43887 68.4968 5.97546C69.7563 5.00938 71.3953 4.52634 73.4135 4.52634C75.2107 4.45654 76.9871 4.92444 78.5077 5.86813C79.7312 6.62576 80.7076 7.71236 81.3212 8.99895L78.7262 10.9311C78.3171 9.87303 77.5979 8.95785 76.6595 8.30122C75.6574 7.63612 74.4674 7.29811 73.2587 7.33515C72.4005 7.29973 71.5511 7.51614 70.8186 7.95682C70.5253 8.16393 70.2864 8.43664 70.1216 8.75239C69.9568 9.06814 69.8709 9.41786 69.8709 9.7727C69.8709 10.1275 69.9568 10.4773 70.1216 10.793C70.2864 11.1088 70.5253 11.3815 70.8186 11.5886C71.7167 12.0997 72.6929 12.4652 73.7094 12.671L76.1905 13.2479C78.3393 13.7399 79.8143 14.4302 80.6155 15.3187C81.4187 16.2202 81.8463 17.3861 81.8129 18.5837C81.8528 19.6696 81.521 20.7374 80.8705 21.6162C80.2331 22.4395 79.3643 23.0615 78.3712 23.4052C77.2661 23.7875 76.101 23.9752 74.9295 23.9598Z" fill="#012C0E"/>
<path d="M96.135 7.53633H83.429V4.90644H96.135V7.53633ZM91.7646 23.9955C90.8008 24.0157 89.8474 23.7973 88.9921 23.3604C88.2084 22.9521 87.5605 22.3311 87.1256 21.5714C86.6594 20.7173 86.4287 19.7582 86.4564 18.7894V2.50912L89.9163 0V17.7383C89.9163 18.9519 90.1667 19.757 90.6675 20.1536C91.192 20.562 91.8469 20.7744 92.5158 20.7529C92.9082 20.7615 93.2983 20.6923 93.6628 20.5493C94.0273 20.4064 94.3588 20.1927 94.6373 19.921C95.1672 19.4326 95.5954 18.8478 95.8983 18.199L97.0364 21.5222C96.5379 22.2406 95.8713 22.831 95.0925 23.2441C94.0702 23.779 92.922 24.0383 91.7646 23.9955Z" fill="#012C0E"/>
<path d="M107.184 23.9598C105.525 23.9904 103.888 23.5826 102.445 22.779C101.058 21.9842 99.938 20.8091 99.2216 19.3977C98.4641 17.7764 98.072 16.0135 98.072 14.2296C98.072 12.4457 98.4641 10.6828 99.2216 9.06153C99.9322 7.66241 101.039 6.49453 102.408 5.69812C103.811 4.90124 105.409 4.4946 107.029 4.52183C108.641 4.47928 110.235 4.85246 111.654 5.60419C112.944 6.31499 113.985 7.39232 114.641 8.69477C115.372 10.1872 115.729 11.8294 115.683 13.4849C115.683 13.7712 115.683 14.0485 115.647 14.3168C115.611 14.5852 115.592 14.8133 115.565 14.9922H100.656V12.5591H113.439L112.615 13.7175C112.615 11.6064 112.117 10.0097 111.122 8.92736C110.126 7.84499 108.736 7.3038 106.952 7.3038C106.191 7.26892 105.433 7.40187 104.732 7.69289C104.03 7.98391 103.405 8.42559 102.9 8.98548C101.902 10.1036 101.402 11.7838 101.402 14.0261V14.4734C101.369 15.7198 101.605 16.9591 102.094 18.1096C102.504 19.0606 103.204 19.8637 104.097 20.4085C105.031 20.9507 106.1 21.2249 107.184 21.2002C108.265 21.2386 109.341 21.04 110.334 20.6187C111.067 20.2925 111.713 19.8024 112.219 19.1875C112.631 18.6793 112.975 18.1217 113.243 17.5282L115.369 19.8092C114.595 21.0042 113.552 22.0082 112.319 22.7432C110.996 23.5542 109.284 23.9598 107.184 23.9598Z" fill="#012C0E"/>
<path d="M119.967 4.90645V23.5751H123.418V4.90645H119.967ZM145.557 6.10958C145.032 5.53117 144.36 5.10177 143.608 4.86621V23.5751H147V10.6627C147 8.6858 146.517 7.16064 145.557 6.10958Z" fill="#012C0E"/>
<path d="M142.539 8.15361C142.539 8.16524 142.536 8.17678 142.53 8.18672C142.524 8.19666 142.515 8.20456 142.504 8.20938C142.493 8.2142 142.481 8.21571 142.469 8.21375C142.458 8.21178 142.447 8.20643 142.438 8.19835C141.765 7.62586 140.768 7.34407 139.461 7.34407C138.597 7.30738 137.749 7.57372 137.066 8.09546C136.416 8.62994 135.931 9.33367 135.669 10.126C135.355 11.0344 135.201 11.9889 135.214 12.9483V23.5752H131.786V11.4767C131.786 10.0589 131.444 9.01682 130.766 8.34593C130.088 7.67503 129.031 7.34854 127.62 7.34854C126.768 7.31454 125.932 7.58105 125.262 8.09994C124.973 8.3285 124.718 8.59661 124.506 8.89607V8.78874C124.505 8.15813 124.653 7.53588 124.938 6.97092C125.224 6.40596 125.638 5.91366 126.15 5.53267C127.133 4.85229 128.316 4.50529 129.518 4.54421C131.385 4.54421 132.796 5.06753 133.748 6.13201C134.599 7.06678 135.068 8.36829 135.168 10.0276C135.331 9.36256 135.561 8.71525 135.856 8.09546C136.331 7.07608 137.064 6.19364 137.986 5.53267C138.058 5.4799 138.134 5.4335 138.214 5.39402C140.18 4.38321 142.539 5.97992 142.539 8.15361Z" fill="#82C75B"/>
<path d="M3.20506 23.5886H0.0183105V4.90649H2.99566L10.6894 15.7794L12.5605 18.709L12.3647 15.1667V4.90649H15.5515V23.5886H12.6014L4.71196 12.5457L2.97743 9.89794L3.20506 13.3284V23.5886Z" fill="#012C0E"/>
</g>
<defs>
<clipPath id="clip0_293_75">
<rect width="147" height="24" fill="white"/>
</clipPath>
</defs>
</svg>
