<svg width="99" height="36" viewBox="0 0 99 36" fill="none" xmlns="http://www.w3.org/2000/svg">
<rect width="98.727" height="35.1564" rx="7.70552" fill="#005BFF"/>
<path d="M43.2183 21.4567H36.7796L44.9997 10.8454C45.0855 10.7316 45.1221 10.5896 45.1016 10.4498C45.0812 10.31 45.0053 10.1836 44.8902 10.0978C44.7956 10.0283 44.6803 9.99077 44.5618 9.99105H32.6696C32.1655 9.99105 31.682 10.1864 31.3256 10.5342C30.9691 10.8819 30.7688 11.3536 30.7688 11.8454C30.7688 12.3371 30.9691 12.8088 31.3256 13.1565C31.682 13.5043 32.1655 13.6997 32.6696 13.6997H38.0136L29.7637 24.3206C29.7194 24.3759 29.6868 24.4392 29.6678 24.5068C29.6489 24.5745 29.6439 24.6452 29.6531 24.7147C29.6624 24.7843 29.6857 24.8514 29.7218 24.912C29.7579 24.9727 29.806 25.0258 29.8632 25.0682C29.9578 25.1448 30.0789 25.1831 30.2016 25.175H43.2084C43.6941 25.1484 44.1509 24.9415 44.4851 24.5966C44.8193 24.2518 45.0056 23.7952 45.0056 23.3207C45.0056 22.8461 44.8193 22.3895 44.4851 22.0447C44.1509 21.6999 43.6941 21.4929 43.2084 21.4664V21.4567H43.2183ZM84.7764 9.99105C84.2728 9.99258 83.7902 10.1884 83.4341 10.5359C83.078 10.8833 82.8772 11.354 82.8756 11.8454V18.0684L72.6055 10.1173C72.5502 10.0729 72.4863 10.0396 72.4177 10.0195C72.3491 9.99932 72.277 9.99267 72.2058 9.99989C72.1345 10.0071 72.0654 10.0281 72.0025 10.0616C71.9395 10.095 71.8841 10.1404 71.8393 10.1949C71.7604 10.2913 71.7182 10.4114 71.7198 10.5347V23.3207C71.7198 23.8125 71.9201 24.2841 72.2766 24.6319C72.633 24.9796 73.1165 25.175 73.6206 25.175C74.1247 25.175 74.6082 24.9796 74.9646 24.6319C75.3211 24.2841 75.5214 23.8125 75.5214 23.3207V17.0976L85.7915 25.0585C85.9063 25.1471 86.0526 25.1877 86.1981 25.1713C86.3436 25.1549 86.4765 25.0829 86.5677 24.9711C86.6449 24.8775 86.687 24.7611 86.6871 24.641V11.8454C86.685 11.3525 86.4827 10.8806 86.1245 10.533C85.7664 10.1854 85.2816 9.99053 84.7764 9.99105ZM57.5985 21.8062C53.2496 21.8062 50.0054 19.5732 50.0054 17.5733C50.0054 15.5734 53.2595 13.3404 57.5985 13.3404C61.9374 13.3404 65.1916 15.5734 65.1916 17.5733C65.1916 19.5732 61.9573 21.8062 57.5985 21.8062ZM57.5985 9.63184C51.309 9.63184 46.2038 13.1851 46.2038 17.5733C46.2038 21.9615 51.309 25.5148 57.5985 25.5148C63.8879 25.5148 68.9931 21.9615 68.9931 17.5733C68.9931 13.1851 63.8879 9.63184 57.5985 9.63184ZM20.1903 21.8159C19.3311 21.8168 18.491 21.5692 17.7761 21.1044C17.0612 20.6395 16.5036 19.9783 16.174 19.2043C15.8443 18.4304 15.7572 17.5784 15.9239 16.7562C16.0905 15.934 16.5034 15.1784 17.1102 14.5851C17.717 13.9917 18.4905 13.5873 19.3329 13.4228C20.1754 13.2584 21.0489 13.3413 21.843 13.6612C22.6371 13.981 23.3162 14.5234 23.7943 15.2198C24.2725 15.9161 24.5282 16.7352 24.5292 17.5733V17.583C24.5265 18.7048 24.0686 19.78 23.2554 20.5733C22.4423 21.3665 21.3402 21.8133 20.1903 21.8159ZM20.1903 9.63184C18.5792 9.63088 17.0041 10.096 15.6641 10.9683C14.324 11.8407 13.2792 13.0811 12.6618 14.5327C12.0444 15.9844 11.8821 17.582 12.1954 19.1236C12.5087 20.6653 13.2836 22.0816 14.4221 23.1936C15.5605 24.3056 17.0114 25.0633 18.5913 25.3708C20.1712 25.6784 21.809 25.522 23.2978 24.9214C24.7865 24.3209 26.0593 23.3032 26.9552 21.9969C27.851 20.6907 28.3297 19.1546 28.3307 17.583V17.5733C28.3281 15.4679 27.4696 13.4494 25.9435 11.9607C24.4174 10.4719 22.3484 9.63441 20.1903 9.63184Z" fill="white"/>
</svg>
